<svg width="37" height="37" viewBox="0 0 37 37" fill="none" xmlns="http://www.w3.org/2000/svg">
<rect width="37" height="37" rx="9.70588" fill="black" fill-opacity="0.55"/>
<rect width="37" height="37" rx="9.70588" fill="url(#paint0_radial_380_2279)" fill-opacity="0.55"/>
<rect x="0.485294" y="0.485294" width="36.0294" height="36.0294" rx="9.22059" stroke="#7713ee" stroke-opacity="0.38" stroke-width="0.970588"/>
<path d="M18.6026 20.5842C20.6791 20.5008 22.363 18.7244 22.2884 16.8408C22.3262 15.0847 20.5736 13.1038 18.309 13.2039C16.4748 13.284 14.7177 14.9253 14.686 16.8248C14.6493 19.0157 16.6691 20.6616 18.6026 20.5842Z" fill="white"/>
<path d="M9.29634 20.5469C9.33966 20.9699 9.56863 21.3226 9.83507 21.648C10.2772 22.1862 10.8197 22.5862 11.5486 22.6556C12.0151 22.7 12.4864 22.7083 12.9557 22.709C16.4732 22.7148 19.9908 22.7164 23.5085 22.7137C24.093 22.7137 24.6775 22.7027 25.2619 22.6743C26.031 22.6366 26.6282 22.2616 27.1088 21.7047C27.5213 21.2255 27.7352 20.6777 27.7304 20.0364C27.7152 18.0574 27.7252 16.0781 27.7256 14.0971C27.7256 13.9583 27.7218 13.8192 27.7256 13.6803C27.75 12.7634 27.2583 12.1121 26.5567 11.5806C26.1049 11.2382 25.5772 11.0901 25.0013 11.0898C23.93 11.0898 22.8588 11.0784 21.7875 11.0717H21.5664C21.3901 10.7381 21.2254 10.4138 21.0507 10.0954C20.7912 9.61997 20.655 9.43111 20.3308 9.23525C20.0751 9.08113 19.78 8.99963 19.4789 9.00002H17.5004C17.2173 8.9988 16.939 9.07078 16.6942 9.20856L16.6904 9.21056C16.3672 9.39441 16.1565 9.67402 15.9897 9.99134C15.8023 10.347 15.6115 10.7014 15.417 11.0704H15.2691C14.1979 11.0758 13.1266 11.0784 12.055 11.0874C10.807 11.0981 9.75153 11.8238 9.36064 12.9733C9.26815 13.2456 9.25922 13.5529 9.2575 13.8442C9.24902 15.7234 9.2481 17.603 9.25474 19.4831C9.25612 19.8362 9.25956 20.1928 9.29634 20.5469ZM14.738 13.7761C15.4544 12.9256 16.4091 12.4348 17.511 12.2326C18.5407 12.044 19.5587 12.1121 20.5185 12.5469C22.4191 13.4071 23.3576 14.8952 23.3789 16.9026C23.3961 18.5575 22.6968 19.9176 21.2673 20.8375C20.3092 21.4541 19.6618 21.6576 18.4389 21.5982C17.2882 21.692 16.2465 21.2893 15.3289 20.5575C14.3402 19.7691 13.7853 18.7381 13.6326 17.5128C13.4583 16.1221 13.8231 14.8622 14.738 13.7761Z" fill="white"/>
<path d="M17.0022 24.2399C16.8435 24.0848 16.6518 23.9653 16.4405 23.8897C16.2292 23.8142 16.0034 23.7844 15.779 23.8024H15.7714C15.5586 23.8205 15.4531 23.9669 15.4029 24.1491C15.3547 24.324 15.3341 24.4968 15.5022 24.6389C15.9347 25.003 16.3617 25.373 16.7921 25.74C16.8183 25.7606 16.8456 25.7797 16.874 25.7974L16.8575 25.8421C16.5931 25.8285 16.3284 25.8208 16.0647 25.7998C14.8724 25.7053 13.6842 25.5752 12.5126 25.3326C11.2161 25.0657 9.94508 24.7207 8.76827 24.1081C8.2402 23.8331 7.7441 23.5145 7.37555 23.0437C7.09157 22.6807 6.93721 22.2712 7.11048 21.8278C7.19849 21.6029 7.37796 21.4074 7.53645 21.2142C7.67397 21.0454 7.85067 20.9056 7.99438 20.7401C8.21372 20.4871 8.20822 20.2396 7.99645 20.023C7.83933 19.8615 7.4921 19.8525 7.2676 20.012C6.78628 20.354 6.42633 20.7941 6.16504 21.3133L6.16333 21.317C6.05581 21.5305 5.99995 21.765 6.00003 22.0026V22.332C5.99853 22.5989 6.06376 22.8623 6.19014 23.0994C6.56831 23.8001 7.19024 24.3006 7.88265 24.7167C8.97798 25.375 10.1802 25.7844 11.4169 26.1044C12.6773 26.4293 13.9631 26.6534 15.2612 26.7747C15.8818 26.8345 16.504 26.8772 17.1624 26.9306C17.1108 26.9876 17.073 27.0333 17.0314 27.075C16.6931 27.4147 16.3486 27.7484 16.0172 28.0944C15.8089 28.3126 15.7422 28.4811 15.8068 28.6663C15.8448 28.7654 15.9134 28.8506 16.0033 28.9104C16.0931 28.9701 16.1998 29.0014 16.3088 29H16.3569C16.4984 29.0004 16.6343 28.9465 16.7351 28.8501L18.8474 26.8341C18.902 26.7814 18.9454 26.7187 18.9749 26.6497C19.0044 26.5806 19.0195 26.5065 19.0193 26.4317C19.0195 26.3574 19.0046 26.2838 18.9754 26.215C18.9462 26.1463 18.9032 26.0839 18.8491 26.0313L17.0022 24.2399Z" fill="white"/>
<path d="M30.741 21.1655C30.4608 20.707 30.1346 20.2879 29.6752 19.9853C29.4315 19.8245 29.1382 19.8655 28.9619 20.0674C28.7656 20.2923 28.7714 20.5222 28.9887 20.7507C29.1826 20.9549 29.3909 21.1465 29.58 21.3547C30.0328 21.8532 30.0613 22.4027 29.6746 22.9536C29.4112 23.328 29.0557 23.6052 28.6652 23.8441C27.7761 24.3894 26.7959 24.7264 25.7914 25.0026C24.5451 25.3453 23.2696 25.5415 21.9883 25.7077C21.8253 25.7287 21.6558 25.751 21.507 25.8118C21.3048 25.8939 21.2106 26.1394 21.2663 26.3486C21.3351 26.6062 21.5114 26.7727 21.7507 26.761C22.076 26.7454 22.4015 26.7163 22.7237 26.6723C24.3529 26.4494 25.9526 26.1074 27.4842 25.5085C28.429 25.1391 29.3356 24.6983 30.0747 24.002C30.5987 23.5085 31.0594 22.9676 30.9844 22.1384C31.0422 21.8128 30.9346 21.4811 30.741 21.1655Z" fill="white"/>
<defs>
<radialGradient id="paint0_radial_380_2279" cx="0" cy="0" r="1" gradientUnits="userSpaceOnUse" gradientTransform="translate(18.5 -12.7586) rotate(90) scale(76.5517 62.8335)">
<stop stop-color="#7713ee"/>
<stop offset="1" stop-opacity="0"/>
</radialGradient>
</defs>
</svg>
