<svg width="193" height="308" viewBox="0 0 193 308" fill="none" xmlns="http://www.w3.org/2000/svg">
<g clip-path="url(#clip0_906_483)">
<path d="M27.5 13H3.5V24L97 75.5L191 22.5V13H167.5L97 52L27.5 13Z" fill="#FF000F" fill-opacity="0.35"/>
<path d="M3.5 40.5V54V65L97 116.5L191 63.5V54V40.5L97 93L3.5 40.5Z" fill="#FF000F" fill-opacity="0.35"/>
<path d="M3.5 78.5V92V103L97 154.5L191 101.5V92V78.5L97 131L3.5 78.5Z" fill="#FF000F" fill-opacity="0.35"/>
<path d="M3.5 118.5V132V143L97 194.5L191 141.5V132V118.5L97 171L3.5 118.5Z" fill="#FF000F" fill-opacity="0.35"/>
<path d="M3.5 159.5V173V184L97 235.5L191 182.5V173V159.5L97 212L3.5 159.5Z" fill="#FF000F" fill-opacity="0.35"/>
<path d="M97 35.5L57.5 13.5H137L97 35.5Z" fill="#FF000F" fill-opacity="0.35"/>
<rect x="77.1" y="190.1" width="7.8" height="7.8" stroke="#FF0000" stroke-width="2.2"/>
<rect x="93.1" y="190.1" width="7.8" height="7.8" stroke="#FF0000" stroke-width="2.2"/>
<rect x="109.1" y="190.1" width="7.8" height="7.8" stroke="#FF0000" stroke-width="2.2"/>
<rect x="176" y="190" width="3" height="15" fill="#F6001E"/>
<rect x="170" y="199" width="3" height="15" transform="rotate(-90 170 199)" fill="#F6001E"/>
<rect x="176" y="15" width="3" height="15" fill="#F6001E"/>
<rect x="170" y="24" width="3" height="15" transform="rotate(-90 170 24)" fill="#F6001E"/>
<rect x="10.1" y="19.1" width="7.8" height="7.8" stroke="#F6001E" stroke-width="2.2"/>
<path d="M85.5 47.9489C92.6162 43.8404 101.384 43.8404 108.5 47.9489L146.72 70.0152C153.836 74.1237 158.22 81.7166 158.22 89.9338V134.066C158.22 142.283 153.836 149.876 146.72 153.985L108.5 176.051C101.384 180.16 92.6162 180.16 85.5 176.051L47.2801 153.985C40.1639 149.876 35.7801 142.283 35.7801 134.066V89.9338C35.7801 81.7167 40.1639 74.1237 47.2801 70.0152L85.5 47.9489Z" fill="url(#paint0_radial_906_483)" stroke="#F6001E" stroke-width="4"/>
<g clip-path="url(#clip1_906_483)">
<path d="M97 79C88.2508 79.0095 79.8626 82.4893 73.6759 88.6759C67.4893 94.8626 64.0095 103.251 64 112C65.65 155.725 128.35 155.706 130 112C129.991 103.251 126.511 94.8626 120.324 88.6759C114.137 82.4893 105.749 79.0095 97 79ZM97 114.75C96.218 114.76 95.4391 114.853 94.6762 115.025C94.6053 113.491 94.1859 111.994 93.4497 110.647C94.1354 110.388 94.7903 110.055 95.4022 109.652C95.9834 109.242 96.519 108.772 97 108.249C97.9687 109.326 99.1882 110.146 100.55 110.639C99.8141 111.986 99.3947 113.483 99.3237 115.017C98.5606 114.847 97.7818 114.758 97 114.75ZM113.58 102.268L105.772 105.527C105.106 105.791 104.385 105.888 103.672 105.811C102.96 105.733 102.277 105.482 101.683 105.08C101.089 104.678 100.603 104.137 100.266 103.504C99.929 102.871 99.7519 102.165 99.75 101.448V92.97C102.604 93.3858 105.329 94.437 107.722 96.0463C110.116 97.6555 112.118 99.7816 113.58 102.268ZM94.25 92.97V101.448C94.2486 102.164 94.0724 102.869 93.7369 103.502C93.4013 104.134 92.9164 104.675 92.3244 105.078C91.7324 105.48 91.051 105.732 90.3394 105.812C89.6279 105.892 88.9077 105.797 88.2412 105.535L80.379 102.334C81.8372 99.8296 83.8419 97.6869 86.2437 96.0656C88.6454 94.4443 91.3822 93.3861 94.25 92.97ZM78.3192 107.432L85.5518 110.383C86.3825 110.715 87.1261 111.232 87.7256 111.896C88.325 112.56 88.7643 113.352 89.0097 114.213C89.2551 115.073 89.3 115.978 89.1411 116.858C88.9821 117.738 88.6235 118.57 88.0927 119.29L83.2885 125.475C80.9939 123.139 79.3333 120.255 78.4637 117.098C77.5942 113.941 77.5445 110.614 78.3192 107.432ZM87.6693 128.822L92.6 122.45C93.1311 121.79 93.8041 121.258 94.5689 120.893C95.3338 120.528 96.1709 120.34 97.0183 120.343C97.8656 120.346 98.7015 120.54 99.4638 120.91C100.226 121.28 100.895 121.816 101.422 122.48L106.317 128.833C103.459 130.404 100.25 131.228 96.989 131.226C93.7275 131.224 90.5196 130.397 87.6637 128.822H87.6693ZM110.703 125.505L105.938 119.32C105.397 118.599 105.031 117.762 104.868 116.875C104.705 115.989 104.749 115.076 104.996 114.209C105.244 113.343 105.688 112.545 106.295 111.878C106.902 111.211 107.655 110.694 108.495 110.367L115.667 107.366C116.459 110.562 116.418 113.908 115.548 117.084C114.678 120.26 113.008 123.159 110.698 125.505H110.703Z" fill="white"/>
</g>
</g>
<path d="M6.788 218.4H18.212C21.9293 218.4 24.7173 219.397 26.576 221.392C28.4347 223.387 29.364 226.311 29.364 230.164V254.236C29.364 258.089 28.4347 261.013 26.576 263.008C24.7173 265.003 21.9293 266 18.212 266H6.788V218.4ZM18.076 259.2C19.3 259.2 20.2293 258.837 20.864 258.112C21.544 257.387 21.884 256.208 21.884 254.576V229.824C21.884 228.192 21.544 227.013 20.864 226.288C20.2293 225.563 19.3 225.2 18.076 225.2H14.268V259.2H18.076ZM45.225 266.68C41.553 266.68 38.7423 265.637 36.793 263.552C34.8437 261.467 33.869 258.52 33.869 254.712V229.688C33.869 225.88 34.8437 222.933 36.793 220.848C38.7423 218.763 41.553 217.72 45.225 217.72C48.897 217.72 51.7077 218.763 53.657 220.848C55.6063 222.933 56.581 225.88 56.581 229.688V254.712C56.581 258.52 55.6063 261.467 53.657 263.552C51.7077 265.637 48.897 266.68 45.225 266.68ZM45.225 259.88C47.809 259.88 49.101 258.316 49.101 255.188V229.212C49.101 226.084 47.809 224.52 45.225 224.52C42.641 224.52 41.349 226.084 41.349 229.212V255.188C41.349 258.316 42.641 259.88 45.225 259.88ZM61.6396 218.4H72.3156L77.0756 252.468H77.2116L81.9716 218.4H92.6476V266H85.5756V229.96H85.4396L79.9996 266H73.7436L68.3036 229.96H68.1676V266H61.6396V218.4ZM98.2294 218.4H105.709V266H98.2294V218.4ZM111.311 218.4H120.695L127.971 246.892H128.107V218.4H134.771V266H127.087L118.111 231.252H117.975V266H111.311V218.4ZM146.111 218.4H156.243L163.995 266H156.515L155.155 256.548V256.684H146.655L145.295 266H138.359L146.111 218.4ZM154.271 250.224L150.939 226.696H150.803L147.539 250.224H154.271ZM177.149 266.68C173.522 266.68 170.779 265.66 168.921 263.62C167.062 261.535 166.133 258.565 166.133 254.712V251.992H173.205V255.256C173.205 258.339 174.497 259.88 177.081 259.88C178.35 259.88 179.302 259.517 179.937 258.792C180.617 258.021 180.957 256.797 180.957 255.12C180.957 253.125 180.503 251.38 179.597 249.884C178.69 248.343 177.013 246.507 174.565 244.376C171.482 241.656 169.329 239.208 168.105 237.032C166.881 234.811 166.269 232.317 166.269 229.552C166.269 225.789 167.221 222.888 169.125 220.848C171.029 218.763 173.794 217.72 177.421 217.72C181.002 217.72 183.699 218.763 185.513 220.848C187.371 222.888 188.301 225.835 188.301 229.688V231.66H181.229V229.212C181.229 227.58 180.911 226.401 180.277 225.676C179.642 224.905 178.713 224.52 177.489 224.52C174.995 224.52 173.749 226.039 173.749 229.076C173.749 230.799 174.202 232.408 175.109 233.904C176.061 235.4 177.761 237.213 180.209 239.344C183.337 242.064 185.49 244.535 186.669 246.756C187.847 248.977 188.437 251.584 188.437 254.576C188.437 258.475 187.462 261.467 185.513 263.552C183.609 265.637 180.821 266.68 177.149 266.68Z" fill="white"/>
<path d="M11.3622 271L4.49081 281V276.5L8.41732 271H9.88976H11.3622Z" fill="#F6001E"/>
<path d="M14.3071 271L7.4357 281H10.8714L17.7428 271H14.3071Z" fill="#F20300"/>
<path d="M19.706 271L12.8347 281H16.2704L23.1417 271H19.706Z" fill="#F20300"/>
<path d="M25.5958 271L18.7244 281H22.1601L29.0315 271H25.5958Z" fill="#F20300"/>
<path d="M30.9947 271L24.1234 281H27.559L34.4304 271H30.9947Z" fill="#F20300"/>
<path d="M36.3937 271L29.5223 281H32.958L39.8294 271H36.3937Z" fill="#F20300"/>
<path d="M42.2835 271L35.4121 281H38.8478L45.7192 271H42.2835Z" fill="#F20300"/>
<path d="M47.6824 271L40.811 281H44.2467L51.1181 271H47.6824Z" fill="#F20300"/>
<path d="M53.0814 271L46.21 281H49.6457L56.517 271H53.0814Z" fill="#F20300"/>
<path d="M58.9711 271L52.0997 281H55.5354L62.4068 271H58.9711Z" fill="#F20300"/>
<path d="M64.3701 271L57.4987 281H60.9344L67.8058 271H64.3701Z" fill="#F20300"/>
<path d="M69.769 271L62.8976 281H66.3333L73.2047 271H69.769Z" fill="#F20300"/>
<path d="M75.6588 271L68.7874 281H72.2231L79.0945 271H75.6588Z" fill="#F20300"/>
<path d="M81.0577 271L74.1863 281H77.622L84.4934 271H81.0577Z" fill="#F20300"/>
<path d="M86.4567 271L79.5853 281H83.021L89.8924 271H86.4567Z" fill="#F20300"/>
<path d="M92.3465 271L85.4751 281H88.9108L95.7822 271H92.3465Z" fill="#F20300"/>
<path d="M97.7454 271L90.874 281H94.3097L101.181 271H97.7454Z" fill="#F20300"/>
<path d="M103.144 271L96.2729 281H99.7086L106.58 271H103.144Z" fill="#F20300"/>
<path d="M109.034 271L102.163 281H105.598L112.47 271H109.034Z" fill="#F20300"/>
<path d="M114.433 271L107.562 281H110.997L117.869 271H114.433Z" fill="#F20300"/>
<path d="M119.832 271L112.961 281H116.396L123.268 271H119.832Z" fill="#F20300"/>
<path d="M125.722 271L118.85 281H122.286L129.157 271H125.722Z" fill="#F20300"/>
<path d="M131.121 271L124.249 281H127.685L134.556 271H131.121Z" fill="#F20300"/>
<path d="M136.52 271L129.648 281H133.084L139.955 271H136.52Z" fill="#F20300"/>
<path d="M142.409 271L135.538 281H138.974L145.845 271H142.409Z" fill="#F20300"/>
<path d="M148.79 271L141.919 281H145.354L152.226 271H148.79Z" fill="#F20300"/>
<path d="M154.189 271L147.318 281H150.753L157.625 271H154.189Z" fill="#F20300"/>
<path d="M160.079 271L153.207 281H156.643L163.514 271H160.079Z" fill="#F20300"/>
<path d="M165.478 271L158.606 281H162.042L168.913 271H165.478Z" fill="#F20300"/>
<path d="M170.877 271L164.005 281H167.441L174.312 271H170.877Z" fill="#F20300"/>
<path d="M176.766 271L169.895 281H173.331L180.202 271H176.766Z" fill="#F20300"/>
<path d="M182.165 271L175.294 281H178.73L185.601 271H182.165Z" fill="#F20300"/>
<path d="M187.564 271L180.693 281H184.129L191 271H187.564Z" fill="#F20300"/>
<path d="M190.018 277L186.583 281H190.018V277Z" fill="#F20300"/>
<path d="M4 274L6.94489 271H4V274Z" fill="#F20300"/>
<rect y="300" width="3" height="8" fill="#F6001E"/>
<rect y="304" width="61" height="4" rx="2" fill="#F6001E"/>
<rect y="306" width="193" height="2" fill="#F6001E"/>
<rect x="190" y="300" width="3" height="8" fill="#F6001E"/>
<rect x="185" y="301" width="3" height="3" fill="#F6001E"/>
<rect x="193" y="8" width="3" height="8" transform="rotate(-180 193 8)" fill="#F6001E"/>
<rect x="193" y="4" width="61" height="4" rx="2" transform="rotate(-180 193 4)" fill="#F6001E"/>
<rect x="193" y="2" width="193" height="2" transform="rotate(-180 193 2)" fill="#F6001E"/>
<rect x="3" y="8" width="3" height="8" transform="rotate(-180 3 8)" fill="#F6001E"/>
<rect x="8" y="7" width="3" height="3" transform="rotate(-180 8 7)" fill="#F6001E"/>
<path d="M32.2347 297L36.6447 287.2H38.4367L42.8607 297H40.9567L37.1627 288.166H37.8907L34.1107 297H32.2347ZM34.2647 294.732L34.7547 293.304H40.0467L40.5367 294.732H34.2647ZM44.107 297V287.2H48.139C49.007 287.2 49.749 287.34 50.365 287.62C50.9903 287.9 51.471 288.301 51.807 288.824C52.143 289.347 52.311 289.967 52.311 290.686C52.311 291.405 52.143 292.025 51.807 292.548C51.471 293.061 50.9903 293.458 50.365 293.738C49.749 294.009 49.007 294.144 48.139 294.144H45.115L45.927 293.318V297H44.107ZM50.519 297L48.041 293.444H49.987L52.479 297H50.519ZM45.927 293.514L45.115 292.646H48.055C48.8577 292.646 49.4597 292.473 49.861 292.128C50.2717 291.783 50.477 291.302 50.477 290.686C50.477 290.061 50.2717 289.58 49.861 289.244C49.4597 288.908 48.8577 288.74 48.055 288.74H45.115L45.927 287.844V293.514ZM56.0273 291.274H60.8993V292.772H56.0273V291.274ZM56.1673 295.474H61.6973V297H54.3473V287.2H61.5013V288.726H56.1673V295.474ZM62.3402 297L66.7502 287.2H68.5422L72.9662 297H71.0622L67.2682 288.166H67.9962L64.2162 297H62.3402ZM64.3702 294.732L64.8602 293.304H70.1522L70.6422 294.732H64.3702ZM78.0816 297V287.2H82.3656C83.4296 287.2 84.363 287.405 85.1656 287.816C85.9683 288.227 86.5936 288.796 87.0416 289.524C87.4896 290.252 87.7136 291.111 87.7136 292.1C87.7136 293.08 87.4896 293.939 87.0416 294.676C86.5936 295.404 85.9683 295.973 85.1656 296.384C84.363 296.795 83.4296 297 82.3656 297H78.0816ZM79.9016 295.46H82.2816C83.019 295.46 83.6536 295.32 84.1856 295.04C84.727 294.76 85.1423 294.368 85.4316 293.864C85.7303 293.36 85.8796 292.772 85.8796 292.1C85.8796 291.419 85.7303 290.831 85.4316 290.336C85.1423 289.832 84.727 289.44 84.1856 289.16C83.6536 288.88 83.019 288.74 82.2816 288.74H79.9016V295.46ZM94.24 297.14C93.4747 297.14 92.77 297.014 92.126 296.762C91.482 296.51 90.922 296.16 90.446 295.712C89.97 295.255 89.6014 294.723 89.34 294.116C89.0787 293.5 88.948 292.828 88.948 292.1C88.948 291.372 89.0787 290.705 89.34 290.098C89.6014 289.482 89.97 288.95 90.446 288.502C90.922 288.045 91.482 287.69 92.126 287.438C92.77 287.186 93.47 287.06 94.226 287.06C94.9914 287.06 95.6914 287.186 96.326 287.438C96.97 287.69 97.53 288.045 98.006 288.502C98.482 288.95 98.8507 289.482 99.112 290.098C99.3734 290.705 99.504 291.372 99.504 292.1C99.504 292.828 99.3734 293.5 99.112 294.116C98.8507 294.732 98.482 295.264 98.006 295.712C97.53 296.16 96.97 296.51 96.326 296.762C95.6914 297.014 94.996 297.14 94.24 297.14ZM94.226 295.544C94.7207 295.544 95.178 295.46 95.598 295.292C96.018 295.124 96.382 294.886 96.69 294.578C96.998 294.261 97.236 293.897 97.404 293.486C97.5814 293.066 97.67 292.604 97.67 292.1C97.67 291.596 97.5814 291.139 97.404 290.728C97.236 290.308 96.998 289.944 96.69 289.636C96.382 289.319 96.018 289.076 95.598 288.908C95.178 288.74 94.7207 288.656 94.226 288.656C93.7314 288.656 93.274 288.74 92.854 288.908C92.4434 289.076 92.0794 289.319 91.762 289.636C91.454 289.944 91.2114 290.308 91.034 290.728C90.866 291.139 90.782 291.596 90.782 292.1C90.782 292.595 90.866 293.052 91.034 293.472C91.2114 293.892 91.454 294.261 91.762 294.578C92.07 294.886 92.434 295.124 92.854 295.292C93.274 295.46 93.7314 295.544 94.226 295.544ZM101.433 297V287.2H102.931L107.215 294.354H106.431L110.645 287.2H112.143L112.157 297H110.435L110.421 289.902H110.785L107.201 295.88H106.389L102.749 289.902H103.169V297H101.433ZM114.804 297V287.2H116.624V297H114.804ZM119.275 297V287.2H120.773L126.919 294.746H126.177V287.2H127.983V297H126.485L120.339 289.454H121.081V297H119.275ZM129.223 297L133.633 287.2H135.425L139.849 297H137.945L134.151 288.166H134.879L131.099 297H129.223ZM131.253 294.732L131.743 293.304H137.035L137.525 294.732H131.253ZM141.095 297V287.2H145.379C146.443 287.2 147.377 287.405 148.179 287.816C148.982 288.227 149.607 288.796 150.055 289.524C150.503 290.252 150.727 291.111 150.727 292.1C150.727 293.08 150.503 293.939 150.055 294.676C149.607 295.404 148.982 295.973 148.179 296.384C147.377 296.795 146.443 297 145.379 297H141.095ZM142.915 295.46H145.295C146.033 295.46 146.667 295.32 147.199 295.04C147.741 294.76 148.156 294.368 148.445 293.864C148.744 293.36 148.893 292.772 148.893 292.1C148.893 291.419 148.744 290.831 148.445 290.336C148.156 289.832 147.741 289.44 147.199 289.16C146.667 288.88 146.033 288.74 145.295 288.74H142.915V295.46ZM151.139 297L155.549 287.2H157.341L161.765 297H159.861L156.067 288.166H156.795L153.015 297H151.139ZM153.169 294.732L153.659 293.304H158.951L159.441 294.732H153.169Z" fill="#F6001E"/>
<defs>
<radialGradient id="paint0_radial_906_483" cx="0" cy="0" r="1" gradientUnits="userSpaceOnUse" gradientTransform="translate(97 112) rotate(90) scale(73)">
<stop stop-color="#FF000F" stop-opacity="0.32"/>
<stop offset="1" stop-color="#FF000F" stop-opacity="0.6"/>
</radialGradient>
<clipPath id="clip0_906_483">
<rect width="187" height="199" fill="white" transform="translate(4 13)"/>
</clipPath>
<clipPath id="clip1_906_483">
<rect width="66" height="66" fill="white" transform="translate(64 79)"/>
</clipPath>
</defs>
</svg>