<svg width="21" height="21" viewBox="0 0 21 21" fill="none" xmlns="http://www.w3.org/2000/svg">
<path d="M20.9998 14.6279V6.27872C20.9998 2.09117 17.5736 2.33506 17.5736 2.33506H14.8798C13.6997 2.33506 13.4798 0 13.4798 0H7.52798C7.52798 0 7.30543 2.33506 6.12801 2.33506H3.42381C3.42381 2.33506 0.00022471 2.09117 0.00022471 6.27872V14.6279C0.00022471 14.6279 -0.0929342 15.1468 3.51438 15.1468V19.5004C3.51335 19.6962 3.55107 19.8903 3.62535 20.0715C3.69964 20.2526 3.80901 20.4172 3.94714 20.5557C4.08528 20.6942 4.24943 20.8039 4.43011 20.8783C4.61079 20.9528 4.8044 20.9906 4.99975 20.9896H7.63925C6.98893 18.9753 6.79705 16.8405 7.07771 14.742C7.0826 14.6457 7.11778 14.5534 7.17821 14.4784C7.23865 14.4033 7.32123 14.3494 7.41411 14.3243C7.5166 14.308 7.62162 14.3242 7.71445 14.3707C7.80727 14.4172 7.88323 14.4917 7.93166 14.5838C8.068 14.7853 8.12684 15.0296 8.09728 15.2713C7.83979 17.2006 8.04107 19.1636 8.6847 21H12.3075C12.9519 19.1638 13.1541 17.2008 12.8975 15.2713C12.8658 15.0298 12.9238 14.7851 13.0606 14.5838C13.109 14.4917 13.185 14.4172 13.2778 14.3707C13.3706 14.3242 13.4756 14.308 13.5781 14.3243C13.6711 14.3496 13.7538 14.4036 13.8146 14.4785C13.8754 14.5534 13.9113 14.6456 13.9171 14.742C14.1978 16.8405 14.0059 18.9753 13.3556 20.9896H15.9977C16.1377 20.9901 16.277 20.9709 16.4117 20.9325C16.7208 20.8422 16.9923 20.6537 17.1854 20.3955C17.3786 20.1373 17.483 19.8232 17.483 19.5004V15.1468C21.0929 15.1416 20.9998 14.6279 20.9998 14.6279ZM14.0336 9.26501C14.1359 9.26501 14.236 9.29543 14.3211 9.35245C14.4062 9.40947 14.4725 9.49051 14.5117 9.58533C14.5509 9.68015 14.5611 9.78448 14.5412 9.88513C14.5212 9.98579 14.4719 10.0783 14.3995 10.1508C14.3271 10.2234 14.2349 10.2728 14.1345 10.2928C14.0341 10.3129 13.9301 10.3026 13.8355 10.2633C13.7409 10.224 13.6601 10.1575 13.6032 10.0722C13.5464 9.98685 13.516 9.88654 13.516 9.78391C13.516 9.64629 13.5705 9.51431 13.6676 9.417C13.7647 9.31968 13.8963 9.26501 14.0336 9.26501ZM6.95608 9.26501C7.05844 9.26501 7.15851 9.29543 7.24362 9.35245C7.32873 9.40947 7.39506 9.49051 7.43424 9.58533C7.47341 9.68015 7.48366 9.78448 7.46369 9.88513C7.44372 9.98579 7.39443 10.0783 7.32205 10.1508C7.24967 10.2234 7.15745 10.2728 7.05705 10.2928C6.95666 10.3129 6.8526 10.3026 6.75803 10.2633C6.66346 10.224 6.58263 10.1575 6.52576 10.0722C6.46889 9.98685 6.43853 9.88654 6.43853 9.78391C6.43853 9.71555 6.45201 9.64786 6.47818 9.58473C6.50435 9.5216 6.5427 9.4643 6.59103 9.41608C6.63937 9.36786 6.69673 9.32967 6.75982 9.30374C6.82291 9.27782 6.89049 9.26467 6.95867 9.26501H6.95608ZM10.905 19.3421C10.8968 19.4455 10.85 19.5421 10.774 19.6124C10.698 19.6828 10.5983 19.7219 10.4948 19.7219C10.3913 19.7219 10.2917 19.6828 10.2157 19.6124C10.1396 19.5421 10.0929 19.4455 10.0847 19.3421V14.9755C10.0802 14.9188 10.0874 14.8617 10.106 14.8079C10.1246 14.7541 10.1541 14.7048 10.1926 14.6629C10.2311 14.6211 10.2778 14.5877 10.3299 14.5649C10.3819 14.5421 10.438 14.5303 10.4948 14.5303C10.5516 14.5303 10.6078 14.5421 10.6598 14.5649C10.7118 14.5877 10.7585 14.6211 10.7971 14.6629C10.8356 14.7048 10.8651 14.7541 10.8836 14.8079C10.9022 14.8617 10.9095 14.9188 10.905 14.9755V19.3421ZM12.9545 12.4926C12.0869 12.493 11.2359 12.2552 10.4935 11.805C9.75121 12.2552 8.90012 12.493 8.03259 12.4926C5.26111 12.4926 2.96837 10.0978 2.70183 6.91955C2.69592 6.83295 2.71178 6.74626 2.74794 6.66739C2.78411 6.58852 2.83943 6.51999 2.90885 6.46811C2.98069 6.41501 3.0654 6.38218 3.15419 6.37303C3.24297 6.36389 3.33258 6.37876 3.41368 6.41611C3.49479 6.45345 3.56443 6.51191 3.61536 6.58539C3.66629 6.65887 3.69666 6.74471 3.70329 6.83395C3.92066 9.48814 5.77348 11.4885 8.03259 11.4885C8.93348 11.4831 9.80412 11.1619 10.4935 10.5804C11.1839 11.1602 12.0539 11.4812 12.9545 11.4885C15.2032 11.4885 17.0664 9.48814 17.2838 6.83395C17.2909 6.74467 17.3217 6.65892 17.3729 6.58555C17.4242 6.51218 17.494 6.45383 17.5752 6.41655C17.6564 6.37927 17.7461 6.36438 17.835 6.37345C17.9239 6.38251 18.0087 6.41519 18.0808 6.46811C18.1497 6.52028 18.2046 6.58892 18.2403 6.66777C18.276 6.74662 18.2914 6.83318 18.2852 6.91955C18.0213 10.0978 15.7311 12.4926 12.9571 12.4926H12.9545Z" fill="white"/>
</svg>
