<svg width="28" height="20" viewBox="0 0 28 20" fill="none" xmlns="http://www.w3.org/2000/svg">
<path d="M21 5.71429V2.85714C21 2.09938 20.705 1.37266 20.1799 0.836838C19.6548 0.301019 18.9426 0 18.2 0H2.8C2.05739 0 1.3452 0.301019 0.820101 0.836838C0.294999 1.37266 0 2.09938 0 2.85714V17.1429C0 17.9006 0.294999 18.6273 0.820101 19.1632C1.3452 19.699 2.05739 20 2.8 20H18.2C18.9426 20 19.6548 19.699 20.1799 19.1632C20.705 18.6273 21 17.9006 21 17.1429V14.2857L28 20V0L21 5.71429Z" fill="white"/>
</svg>
