<svg width="26" height="26" viewBox="0 0 26 26" fill="none"
  xmlns="http://www.w3.org/2000/svg">
  <path d="M25.9877 17.4933V7.50864C25.9877 2.5008 21.8796 2.79248 21.8796 2.79248H18.6497C17.2348 2.79248 16.9711 0 16.9711 0H9.83476C9.83476 0 9.56793 2.79248 8.15618 2.79248H4.9138C4.9138 2.79248 0.808863 2.5008 0.808863 7.50864V17.4933C0.808863 17.4933 0.697164 18.1139 5.0224 18.1139V23.3202C5.02116 23.5545 5.06639 23.7866 5.15545 24.0033C5.24452 24.2199 5.37566 24.4167 5.54128 24.5824C5.70691 24.748 5.90373 24.8791 6.12037 24.9682C6.337 25.0572 6.56915 25.1025 6.80338 25.1012H9.96818C9.18844 22.6923 8.95837 20.1393 9.29489 17.6298C9.30075 17.5146 9.34293 17.4042 9.41539 17.3145C9.48785 17.2248 9.58687 17.1603 9.69824 17.1303C9.82113 17.1107 9.94705 17.1301 10.0583 17.1858C10.1696 17.2414 10.2607 17.3305 10.3188 17.4405C10.4823 17.6816 10.5528 17.9737 10.5174 18.2628C10.2086 20.57 10.45 22.9175 11.2217 25.1136H15.5655C16.3382 22.9177 16.5806 20.5702 16.273 18.2628C16.2349 17.974 16.3045 17.6813 16.4684 17.4405C16.5265 17.3305 16.6176 17.2414 16.7289 17.1858C16.8402 17.1301 16.9661 17.1107 17.089 17.1303C17.2005 17.1606 17.2997 17.225 17.3726 17.3146C17.4455 17.4043 17.4885 17.5145 17.4955 17.6298C17.832 20.1393 17.6019 22.6923 16.8222 25.1012H19.9901C20.1579 25.1019 20.325 25.0789 20.4865 25.033C20.8571 24.9249 21.1826 24.6995 21.4142 24.3907C21.6458 24.0819 21.771 23.7063 21.771 23.3202V18.1139C26.0994 18.1077 25.9877 17.4933 25.9877 17.4933ZM17.6351 11.0799C17.7578 11.0799 17.8778 11.1163 17.9798 11.1845C18.0819 11.2527 18.1614 11.3496 18.2084 11.463C18.2554 11.5764 18.2676 11.7011 18.2437 11.8215C18.2198 11.9419 18.1607 12.0525 18.0739 12.1392C17.9871 12.226 17.8765 12.2851 17.7561 12.3091C17.6358 12.333 17.511 12.3207 17.3976 12.2738C17.2842 12.2268 17.1873 12.1472 17.1191 12.0452C17.0509 11.9432 17.0145 11.8232 17.0145 11.7005C17.0145 11.5359 17.0799 11.378 17.1963 11.2617C17.3127 11.1453 17.4705 11.0799 17.6351 11.0799ZM9.14906 11.0799C9.27179 11.0799 9.39177 11.1163 9.49382 11.1845C9.59586 11.2527 9.6754 11.3496 9.72237 11.463C9.76934 11.5764 9.78163 11.7011 9.75768 11.8215C9.73374 11.9419 9.67464 12.0525 9.58785 12.1392C9.50107 12.226 9.39049 12.2851 9.27012 12.3091C9.14974 12.333 9.02497 12.3207 8.91158 12.2738C8.79819 12.2268 8.70127 12.1472 8.63309 12.0452C8.5649 11.9432 8.52851 11.8232 8.52851 11.7005C8.5285 11.6187 8.54466 11.5378 8.57604 11.4623C8.60742 11.3868 8.6534 11.3182 8.71136 11.2606C8.76931 11.2029 8.83808 11.1572 8.91373 11.1262C8.98938 11.0952 9.07041 11.0795 9.15216 11.0799H9.14906ZM13.8839 23.131C13.874 23.2547 13.8179 23.3701 13.7268 23.4543C13.6357 23.5385 13.5161 23.5852 13.3921 23.5852C13.268 23.5852 13.1485 23.5385 13.0573 23.4543C12.9662 23.3701 12.9101 23.2547 12.9003 23.131V17.9091C12.8949 17.8412 12.9036 17.7729 12.9259 17.7086C12.9481 17.6443 12.9835 17.5852 13.0297 17.5352C13.0759 17.4852 13.1319 17.4453 13.1943 17.418C13.2566 17.3907 13.324 17.3766 13.3921 17.3766C13.4601 17.3766 13.5275 17.3907 13.5899 17.418C13.6522 17.4453 13.7083 17.4852 13.7545 17.5352C13.8007 17.5852 13.836 17.6443 13.8583 17.7086C13.8805 17.7729 13.8892 17.8412 13.8839 17.9091V23.131ZM16.3412 14.9397C15.301 14.9402 14.2806 14.6558 13.3905 14.1175C12.5005 14.6558 11.48 14.9402 10.4398 14.9397C7.11675 14.9397 4.36772 12.0759 4.04813 8.27501C4.04105 8.17144 4.06006 8.06777 4.10342 7.97345C4.14679 7.87913 4.21312 7.79718 4.29635 7.73514C4.38249 7.67163 4.48406 7.63237 4.59052 7.62143C4.69697 7.6105 4.80441 7.62828 4.90166 7.67294C4.9989 7.71761 5.08241 7.78751 5.14347 7.87539C5.20454 7.96327 5.24095 8.06592 5.2489 8.17263C5.50953 11.3467 7.7311 13.7389 10.4398 13.7389C11.52 13.7326 12.5639 13.3484 13.3905 12.653C14.2183 13.3463 15.2615 13.7302 16.3412 13.7389C19.0375 13.7389 21.2715 11.3467 21.5321 8.17263C21.5407 8.06586 21.5776 7.96332 21.639 7.87558C21.7005 7.78783 21.7842 7.71806 21.8816 7.67347C21.979 7.62889 22.0865 7.61108 22.1931 7.62193C22.2996 7.63277 22.4014 7.67185 22.4878 7.73514C22.5704 7.79752 22.6362 7.8796 22.679 7.9739C22.7218 8.0682 22.7403 8.17171 22.7329 8.27501C22.4164 12.0759 19.6705 14.9397 16.3443 14.9397H16.3412Z" fill="white" fill-opacity="0.35"/>
</svg>
