<svg width="24" height="24" viewBox="0 0 24 24" fill="none" xmlns="http://www.w3.org/2000/svg">
<path d="M9.1891 12.0087C9.1891 15.3954 9.1891 18.7825 9.1891 22.1692C9.1891 22.5947 9.17138 23.0117 8.95833 23.3968C8.6017 24.0406 8.28982 24.1419 7.6558 23.8293C6.47726 23.2485 5.29221 22.6836 4.11134 22.1073C3.14866 21.6378 2.1883 21.1638 1.22935 20.6864C1.13424 20.6389 1.03448 20.6344 0.937977 20.6065C0.515608 20.4841 0.282512 20.1585 0.135662 19.7444C0.0358967 19.4628 0.000932383 19.1706 0.000932383 18.8669C0.00466191 14.2817 0.0055943 9.69637 0 5.11109C0 4.78696 0.0554768 4.4828 0.166897 4.18963C0.337056 3.74314 0.652202 3.50342 1.09229 3.37057C1.49694 3.24821 1.87456 3.02146 2.26103 2.83318C3.15379 2.39817 4.04421 1.95817 4.9365 1.52167C5.92669 1.03772 6.91781 0.557266 7.90801 0.073316C8.19938 -0.0690221 8.45485 0.00339553 8.67722 0.225643C8.96673 0.514814 9.11637 0.885892 9.16486 1.29942C9.19096 1.52117 9.18817 1.74791 9.18817 1.97266C9.18957 5.31785 9.1891 8.66305 9.1891 12.0082V12.0087ZM7.66698 11.4349C7.70008 10.6423 7.06606 9.99653 6.33881 9.98205C5.62973 9.96756 4.99944 10.6483 4.99804 11.4064C4.99664 12.2105 5.58591 12.8613 6.32249 12.8618C7.06233 12.8618 7.70568 12.209 7.66652 11.4354L7.66698 11.4349Z" fill="#EE313B"/>
<path d="M18.7698 16.9451V14.6697H12.7391V8.66755H18.7614V6.13543C18.7857 6.12544 18.8099 6.11495 18.8341 6.10497C20.5465 7.90392 22.2588 9.70337 24 11.5333C22.2835 13.3482 20.5665 15.1637 18.8495 16.9786C18.8229 16.9676 18.7964 16.9561 18.7698 16.9451Z" fill="#EE313B"/>
<path d="M11.1774 21.8875V20.0386H16.0235V15.5652C16.554 15.4928 17.0565 15.5278 17.5325 15.5392C17.609 15.6406 17.5894 15.7185 17.5894 15.791C17.5903 17.1304 17.5927 18.4704 17.588 19.8099C17.5866 20.2888 17.5078 20.7528 17.257 21.1623C16.9572 21.6523 16.5353 21.9484 15.9848 21.9534C14.4627 21.9669 12.9401 21.9584 11.418 21.9579C11.3485 21.9579 11.2772 21.9624 11.1779 21.8875H11.1774Z" fill="#EE313B"/>
<path d="M16.0216 7.45493V3.98637H11.1872C11.1271 3.34361 11.1634 2.74529 11.1597 2.18043C11.2758 2.05907 11.3811 2.08054 11.4795 2.08054C12.9545 2.07954 14.4291 2.09003 15.9041 2.07555C16.7801 2.06706 17.4225 2.79323 17.512 3.62129C17.6458 4.86288 17.5493 6.11296 17.5642 7.35904C17.5642 7.38201 17.5493 7.40449 17.5321 7.45493H16.0216Z" fill="#EE313B"/>
</svg>
