<svg width="20" height="20" viewBox="0 0 20 20" fill="none" xmlns="http://www.w3.org/2000/svg">
<path d="M13.8239 8.02002C13.8239 8.02002 12.5393 9.58977 10 9.61547C7.45873 9.58977 6.17609 8.02002 6.17609 8.02002C5.91596 11.0627 2 11.6044 2 11.6044V17.1044C2 17.3419 2.0955 17.5697 2.26549 17.7377C2.43549 17.9056 2.66605 18 2.90645 18H17.0935C17.334 18 17.5645 17.9056 17.7345 17.7377C17.9045 17.5697 18 17.3419 18 17.1044V11.6044C18 11.6044 14.084 11.0627 13.8239 8.02002ZM8.14107 11.1141L8.70935 13.6842C8.76495 13.9316 8.86601 14.1668 9.0075 14.3781L9.36768 14.9099L8.74137 14.7122C8.70625 14.7015 8.67361 14.684 8.64532 14.6608C8.2685 14.3661 8.00741 13.9508 7.90695 13.4865L7.43472 11.292L8.14107 11.1141ZM9.6078 17.1143L9.06553 16.792C8.8492 16.6657 8.60991 16.5824 8.36118 16.5469C8.27619 16.5367 8.19067 16.5314 8.10505 16.5311H4.27114C4.20133 16.5307 4.13385 16.5062 4.08047 16.4618C4.02708 16.4173 3.99117 16.3558 3.97899 16.2879C3.97701 16.2708 3.97701 16.2536 3.97899 16.2365C3.97952 16.1592 4.01095 16.0853 4.06643 16.0309C4.12192 15.9764 4.19694 15.9459 4.27514 15.9459H8.13507C8.54025 15.9456 8.93444 16.0761 9.25763 16.3176C9.3677 16.3994 9.45699 16.5054 9.51846 16.6272C9.57993 16.749 9.61188 16.8833 9.61181 17.0194L9.6078 17.1143ZM10.9925 14.3742C11.134 14.1628 11.235 13.9276 11.2906 13.6802L11.8589 11.1101L12.5653 11.292L12.093 13.4865C11.9926 13.9508 11.7315 14.3661 11.3547 14.6608C11.3264 14.684 11.2937 14.7015 11.2586 14.7122L10.6323 14.9099L10.9925 14.3742ZM16.021 16.2879C16.0088 16.3558 15.9729 16.4173 15.9195 16.4618C15.8661 16.5062 15.7987 16.5307 15.7289 16.5311H11.8949C11.8093 16.5314 11.7238 16.5367 11.6388 16.5469C11.3901 16.5824 11.1508 16.6657 10.9345 16.792L10.3922 17.1143V17.0194C10.3921 16.8833 10.4241 16.749 10.4855 16.6272C10.547 16.5054 10.6363 16.3994 10.7464 16.3176C11.0696 16.0761 11.4637 15.9456 11.8689 15.9459H15.7289C15.8071 15.9459 15.8821 15.9764 15.9376 16.0309C15.993 16.0853 16.0245 16.1592 16.025 16.2365C16.0262 16.2557 16.0248 16.275 16.021 16.2938V16.2879Z" fill="white"/>
<path d="M9.99999 8.94133C13.2676 8.94133 15.9149 5.83343 15.9149 2H4.08303C4.08303 5.83343 6.73236 8.94133 9.99999 8.94133Z" fill="white"/>
</svg>
