<svg width="21" height="21" viewBox="0 0 21 21" fill="none" xmlns="http://www.w3.org/2000/svg">
<path d="M1.20952e-06 6.73279V12.6121C1.20952e-06 12.6121 6.14855 12.3524 9.39361 10.4256C9.49761 10.3629 9.61579 10.3297 9.73618 10.3294C9.85656 10.3291 9.97488 10.3617 10.0792 10.4239C10.1834 10.4862 10.2699 10.5758 10.33 10.6837C10.39 10.7916 10.4213 10.9139 10.4209 11.0384C10.4209 12.8926 10.7851 16.0945 12.9325 17.9902C13.1027 18.144 13.2385 18.3342 13.3305 18.5477C13.4224 18.7611 13.4683 18.9927 13.465 19.2264V21H21V16.8216H18.0388C17.8707 16.821 17.7097 16.7514 17.591 16.6283C17.4724 16.5051 17.4058 16.3384 17.4058 16.1646V16.1646C17.4055 16.0785 17.4216 15.9931 17.4533 15.9134C17.4849 15.8337 17.5315 15.7613 17.5903 15.7002C17.6491 15.6392 17.719 15.5907 17.796 15.5577C17.8729 15.5246 17.9554 15.5076 18.0388 15.5076H20.9849V13.1159H15.8134L15.6728 13.038C12.5533 11.3552 12.2996 8.735 12.3925 7.43656C12.4046 7.27145 12.4764 7.11713 12.5938 7.00446C12.7112 6.89179 12.8653 6.82909 13.0255 6.82891C13.0857 6.83016 13.1456 6.83887 13.2038 6.85487C13.3453 6.89856 13.4678 6.99144 13.5506 7.11779C13.6335 7.24414 13.6715 7.39617 13.6584 7.54821C13.5856 8.46231 13.7463 10.3554 15.9792 11.7032C16.0766 11.7622 16.1878 11.7928 16.3007 11.7915H20.9849V1.04568C20.9849 1.04568 14.0477 -1.89398 9.86329 2.08442C9.86329 2.08442 4.83997 1.44559 2.35343 4.61117C1.69337 5.45362 0.897116 6.17143 1.20952e-06 6.73279V6.73279Z" fill="white"/>
</svg>
