<svg width="24" height="26" viewBox="0 0 24 26" fill="none" xmlns="http://www.w3.org/2000/svg">
<path d="M13.6022 2.03853C14.2267 2.13719 14.7984 2.44713 15.2219 2.91659C15.62 3.35621 15.8631 3.91425 15.9138 4.5052C16.162 7.23872 16.8105 15.4145 16.0813 19.1502C16.0306 19.3969 16.0499 19.6529 16.1371 19.8893C16.2242 20.1256 16.3758 20.3328 16.5747 20.4875C17.6079 21.2911 19.7177 22.6594 22.1596 22.7494C22.3767 22.7519 22.586 22.8301 22.7514 22.9707C22.9169 23.1112 23.028 23.3051 23.0656 23.5189L23.137 23.9253C23.1613 24.0606 23.1553 24.1995 23.1195 24.3322C23.0838 24.4649 23.0191 24.588 22.9301 24.6927C22.8411 24.7974 22.73 24.8811 22.6049 24.9378C22.4797 24.9945 22.3435 25.0227 22.2062 25.0206L13.8784 24.8096C13.7192 24.8054 13.5627 24.7679 13.4189 24.6995C13.2752 24.6311 13.1474 24.5333 13.0437 24.4125C12.9252 24.269 12.8413 24.1002 12.7986 23.9191L12.7241 23.5809C12.5741 22.9145 12.5146 22.2309 12.5473 21.5486C12.6647 19.437 12.5261 17.319 12.1346 15.2407C11.7002 12.9695 11.3341 9.86677 11.9267 7.54591C11.9267 7.54591 3.02805 8.45191 0.511719 7.04016V0L13.6022 2.03853ZM1.77454 2.0044C3.10562 2.47602 4.87729 2.62495 5.99738 2.69942L6.50002 2.71801C6.57288 2.72051 6.64549 2.70831 6.71354 2.68214C6.78158 2.65598 6.84366 2.61639 6.89607 2.56572C6.94848 2.51504 6.99014 2.45433 7.01858 2.38721C7.04703 2.32009 7.06167 2.24793 7.06163 2.17503V2.10678C7.06174 1.96563 7.0072 1.82995 6.90944 1.72814C6.81168 1.62633 6.6783 1.56631 6.53726 1.56069C5.59093 1.52966 3.55862 1.40868 2.16859 0.921546C2.04215 0.876441 1.90345 0.880028 1.77954 0.931658C1.65563 0.983288 1.55539 1.07923 1.49839 1.20076L1.46737 1.25663C1.43647 1.32551 1.42019 1.40005 1.41955 1.47555C1.41892 1.55104 1.43395 1.62587 1.46369 1.69526C1.49343 1.76466 1.53723 1.82712 1.59234 1.87873C1.64745 1.93034 1.71265 1.96995 1.78385 1.99509L1.77454 2.0044Z" fill="white" fill-opacity="0.35"/>
</svg>
