<svg width="27" height="26" viewBox="0 0 27 26" fill="none" xmlns="http://www.w3.org/2000/svg">
<path d="M26.8718 8.04437V15.069C26.8718 15.069 19.2762 14.7588 15.2675 12.4565C15.139 12.3816 14.993 12.342 14.8443 12.3416C14.6956 12.3413 14.5494 12.3803 14.4206 12.4546C14.2918 12.5289 14.1849 12.636 14.1108 12.7649C14.0367 12.8938 13.9979 13.04 13.9985 13.1888C13.9985 15.4041 13.5486 19.2298 10.8957 21.4948C10.6855 21.6785 10.5177 21.9058 10.4041 22.1608C10.2906 22.4159 10.2338 22.6926 10.2379 22.9717V25.0909H0.929688V20.0986H4.58783C4.79549 20.0978 4.99436 20.0147 5.1409 19.8675C5.28745 19.7204 5.36973 19.5212 5.36972 19.3136C5.37013 19.2106 5.35021 19.1086 5.3111 19.0134C5.27199 18.9182 5.21446 18.8316 5.14181 18.7587C5.06916 18.6858 4.98283 18.6279 4.88777 18.5884C4.7927 18.5489 4.69077 18.5286 4.58783 18.5286H0.948303V15.671H7.33687L7.51062 15.5779C11.3642 13.5673 11.6776 10.4366 11.5628 8.88524C11.548 8.68797 11.4592 8.50358 11.3142 8.36896C11.1692 8.23435 10.9788 8.15943 10.7809 8.15921C10.7065 8.16071 10.6326 8.17112 10.5606 8.19023C10.3859 8.24243 10.2345 8.35341 10.1322 8.50437C10.0299 8.65533 9.98281 8.83698 9.99903 9.01864C10.089 10.1108 9.89043 12.3727 7.13208 13.983C7.01171 14.0536 6.87443 14.09 6.73493 14.0886H0.948303V1.24938C0.948303 1.24938 9.5181 -2.26294 14.6873 2.49048C14.6873 2.49048 20.8928 1.7272 23.9645 5.50945C24.7799 6.51602 25.7635 7.37366 26.8718 8.04437Z" fill="white" fill-opacity="0.35"/>
</svg>
