<svg width="19" height="21" viewBox="0 0 19 21" fill="none" xmlns="http://www.w3.org/2000/svg">
<path d="M8.01411 1.71095C7.49004 1.79375 7.01024 2.05388 6.65487 2.44791C6.32073 2.81689 6.11675 3.28525 6.0742 3.78124C5.86589 6.0755 5.32167 12.9375 5.93359 16.0729C5.97619 16.2799 5.95998 16.4948 5.88681 16.6932C5.81364 16.8915 5.68644 17.0654 5.51957 17.1952C4.65247 17.8697 2.88181 19.0182 0.832534 19.0937C0.650388 19.0958 0.474703 19.1615 0.335862 19.2794C0.197022 19.3973 0.103756 19.5601 0.0721937 19.7395L0.0123049 20.0807C-0.00808219 20.1942 -0.00308796 20.3108 0.0269305 20.4221C0.0569489 20.5335 0.111246 20.6368 0.185924 20.7247C0.260602 20.8126 0.35381 20.8828 0.458854 20.9304C0.563898 20.978 0.678174 21.0017 0.793477 20.9999L7.78236 20.8228C7.91593 20.8193 8.04728 20.7878 8.16793 20.7304C8.28858 20.673 8.39585 20.5909 8.48281 20.4895C8.5823 20.3691 8.6527 20.2274 8.68852 20.0754L8.75102 19.7916C8.87696 19.2323 8.92688 18.6585 8.89944 18.0859C8.8009 16.3136 8.91719 14.5359 9.24576 12.7916C9.61031 10.8854 9.91757 8.28123 9.42022 6.33332C9.42022 6.33332 16.8882 7.09373 19 5.90884V0L8.01411 1.71095ZM17.9402 1.68231C16.8231 2.07814 15.3363 2.20313 14.3963 2.26563L13.9745 2.28124C13.9133 2.28334 13.8524 2.2731 13.7953 2.25114C13.7382 2.22918 13.6861 2.19595 13.6421 2.15342C13.5981 2.11089 13.5631 2.05993 13.5393 2.0036C13.5154 1.94726 13.5031 1.8867 13.5031 1.82551V1.76823C13.5031 1.64977 13.5488 1.53588 13.6309 1.45044C13.7129 1.36499 13.8248 1.31461 13.9432 1.3099C14.7374 1.28386 16.443 1.18231 17.6095 0.773458C17.7156 0.735601 17.832 0.738612 17.936 0.781946C18.04 0.825279 18.1241 0.905801 18.172 1.00781L18.198 1.0547C18.2239 1.11251 18.2376 1.17507 18.2381 1.23844C18.2387 1.3018 18.226 1.3646 18.2011 1.42284C18.1761 1.48109 18.1394 1.53352 18.0931 1.57683C18.0469 1.62014 17.9921 1.65339 17.9324 1.67449L17.9402 1.68231Z" fill="white"/>
</svg>
