<svg width="24" height="26" viewBox="0 0 24 26" fill="none" xmlns="http://www.w3.org/2000/svg">
<path d="M10.4244 2.03853C9.79994 2.13719 9.22822 2.44713 8.80478 2.91659C8.40662 3.35621 8.16356 3.91425 8.11286 4.5052C7.86464 7.23872 7.21617 15.4145 7.94532 19.1502C7.99607 19.3969 7.97676 19.6529 7.88958 19.8893C7.80239 20.1256 7.65081 20.3328 7.45198 20.4875C6.41877 21.2911 4.30889 22.6594 1.86703 22.7494C1.64999 22.7519 1.44064 22.8301 1.27521 22.9707C1.10977 23.1112 0.998633 23.3051 0.961024 23.5189L0.889662 23.9253C0.865369 24.0606 0.87132 24.1995 0.90709 24.3322C0.942859 24.4649 1.00756 24.588 1.09654 24.6927C1.18553 24.7974 1.29659 24.8811 1.42176 24.9378C1.54693 24.9945 1.68309 25.0227 1.82049 25.0206L10.1483 24.8096C10.3074 24.8054 10.4639 24.7679 10.6077 24.6995C10.7515 24.6311 10.8793 24.5333 10.9829 24.4125C11.1015 24.269 11.1853 24.1002 11.228 23.9191L11.3025 23.5809C11.4526 22.9145 11.512 22.2309 11.4793 21.5486C11.3619 19.437 11.5005 17.319 11.892 15.2407C12.3264 12.9695 12.6925 9.86677 12.0999 7.54591C12.0999 7.54591 20.9986 8.45191 23.5149 7.04016V0L10.4244 2.03853ZM22.2521 2.0044C20.921 2.47602 19.1494 2.62495 18.0293 2.69942L17.5266 2.71801C17.4538 2.72051 17.3811 2.70831 17.3131 2.68214C17.2451 2.65598 17.183 2.61639 17.1306 2.56572C17.0782 2.51504 17.0365 2.45433 17.0081 2.38721C16.9796 2.32009 16.965 2.24793 16.965 2.17503V2.10678C16.9649 1.96563 17.0194 1.82995 17.1172 1.72814C17.215 1.62633 17.3483 1.56631 17.4894 1.56069C18.4357 1.52966 20.468 1.40868 21.8581 0.921546C21.9845 0.876441 22.1232 0.880028 22.2471 0.931658C22.371 0.983288 22.4712 1.07923 22.5282 1.20076L22.5593 1.25663C22.5902 1.32551 22.6065 1.40005 22.6071 1.47555C22.6077 1.55104 22.5927 1.62587 22.563 1.69526C22.5332 1.76466 22.4894 1.82712 22.4343 1.87873C22.3792 1.93034 22.314 1.96995 22.2428 1.99509L22.2521 2.0044Z" fill="white" fill-opacity="0.35"/>
</svg>
