<svg width="27" height="26" viewBox="0 0 27 26" fill="none" xmlns="http://www.w3.org/2000/svg">
<path d="M0.988281 8.04437V15.069C0.988281 15.069 8.58381 14.7588 12.5926 12.4565C12.721 12.3816 12.867 12.342 13.0157 12.3416C13.1645 12.3413 13.3106 12.3803 13.4394 12.4546C13.5683 12.5289 13.6751 12.636 13.7493 12.7649C13.8234 12.8938 13.8621 13.04 13.8616 13.1888C13.8616 15.4041 14.3115 19.2298 16.9643 21.4948C17.1746 21.6785 17.3423 21.9058 17.4559 22.1608C17.5695 22.4159 17.6262 22.6926 17.6221 22.9717V25.0909H26.9304V20.0986H23.2722C23.0646 20.0978 22.8657 20.0147 22.7192 19.8675C22.5726 19.7204 22.4903 19.5212 22.4903 19.3136C22.4899 19.2106 22.5099 19.1086 22.549 19.0134C22.5881 18.9182 22.6456 18.8316 22.7183 18.7587C22.7909 18.6858 22.8772 18.6279 22.9723 18.5884C23.0674 18.5489 23.1693 18.5286 23.2722 18.5286H26.9118V15.671H20.5232L20.3494 15.5779C16.4958 13.5673 16.1824 10.4366 16.2972 8.88524C16.3121 8.68797 16.4009 8.50358 16.5459 8.36896C16.6909 8.23435 16.8813 8.15943 17.0791 8.15921C17.1535 8.16071 17.2275 8.17112 17.2994 8.19023C17.4742 8.24243 17.6255 8.35341 17.7279 8.50437C17.8302 8.65533 17.8772 8.83698 17.861 9.01864C17.7711 10.1108 17.9696 12.3727 20.728 13.983C20.8483 14.0536 20.9856 14.09 21.1251 14.0886H26.9118V1.24938C26.9118 1.24938 18.342 -2.26294 13.1728 2.49048C13.1728 2.49048 6.96728 1.7272 3.89556 5.50945C3.08016 6.51602 2.09652 7.37366 0.988281 8.04437Z" fill="white" fill-opacity="0.35"/>
</svg>
