<svg width="19" height="21" viewBox="0 0 19 21" fill="none" xmlns="http://www.w3.org/2000/svg">
<path d="M10.9859 1.71095C11.51 1.79375 11.9898 2.05388 12.3451 2.44791C12.6793 2.81689 12.8833 3.28525 12.9258 3.78124C13.1341 6.0755 13.6783 12.9375 13.0664 16.0729C13.0238 16.2799 13.04 16.4948 13.1132 16.6932C13.1864 16.8915 13.3136 17.0654 13.4804 17.1952C14.3475 17.8697 16.1182 19.0182 18.1675 19.0937C18.3496 19.0958 18.5253 19.1615 18.6641 19.2794C18.803 19.3973 18.8962 19.5601 18.9278 19.7395L18.9877 20.0807C19.0081 20.1942 19.0031 20.3108 18.9731 20.4221C18.9431 20.5335 18.8888 20.6368 18.8141 20.7247C18.7394 20.8126 18.6462 20.8828 18.5411 20.9304C18.4361 20.978 18.3218 21.0017 18.2065 20.9999L11.2176 20.8228C11.0841 20.8193 10.9527 20.7878 10.8321 20.7304C10.7114 20.673 10.6042 20.5909 10.5172 20.4895C10.4177 20.3691 10.3473 20.2274 10.3115 20.0754L10.249 19.7916C10.123 19.2323 10.0731 18.6585 10.1006 18.0859C10.1991 16.3136 10.0828 14.5359 9.75424 12.7916C9.38969 10.8854 9.08243 8.28123 9.57978 6.33332C9.57978 6.33332 2.11177 7.09373 -9.56671e-07 5.90884V0L10.9859 1.71095ZM1.05979 1.68231C2.17687 2.07814 3.6637 2.20313 4.60371 2.26563L5.02554 2.28124C5.08668 2.28334 5.14762 2.2731 5.20472 2.25114C5.26183 2.22918 5.31393 2.19595 5.35791 2.15342C5.40189 2.11089 5.43686 2.05993 5.46073 2.0036C5.4846 1.94726 5.49689 1.8867 5.49685 1.82551V1.76823C5.49695 1.64977 5.45117 1.53588 5.36913 1.45044C5.28709 1.36499 5.17515 1.31461 5.05679 1.3099C4.2626 1.28386 2.55704 1.18231 1.39048 0.773458C1.28438 0.735601 1.16798 0.738612 1.06399 0.781946C0.959997 0.825279 0.875876 0.905801 0.82804 1.00781L0.802007 1.0547C0.776074 1.11251 0.762409 1.17507 0.761877 1.23844C0.761345 1.3018 0.773957 1.3646 0.798916 1.42284C0.823875 1.48109 0.860638 1.53352 0.906885 1.57683C0.953132 1.62014 1.00786 1.65339 1.0676 1.67449L1.05979 1.68231Z" fill="white"/>
</svg>
