<svg width="21" height="21" viewBox="0 0 21 21" fill="none" xmlns="http://www.w3.org/2000/svg">
<path d="M21 6.73279V12.6121C21 12.6121 14.8515 12.3524 11.6064 10.4256C11.5024 10.3629 11.3842 10.3297 11.2638 10.3294C11.1434 10.3291 11.0251 10.3617 10.9208 10.4239C10.8166 10.4862 10.7301 10.5758 10.67 10.6837C10.61 10.7916 10.5787 10.9139 10.5791 11.0384C10.5791 12.8926 10.2149 16.0945 8.06746 17.9902C7.89726 18.144 7.76148 18.3342 7.66953 18.5477C7.57758 18.7611 7.53167 18.9927 7.53499 19.2264V21H0V16.8216H2.96125C3.12935 16.821 3.29033 16.7514 3.40896 16.6283C3.52758 16.5051 3.59419 16.3384 3.59419 16.1646V16.1646C3.59452 16.0785 3.57839 15.9931 3.54673 15.9134C3.51507 15.8337 3.4685 15.7613 3.40969 15.7002C3.35089 15.6392 3.281 15.5907 3.20404 15.5577C3.12709 15.5246 3.04458 15.5076 2.96125 15.5076H0.0150694V13.1159H5.18658L5.32723 13.038C8.44672 11.3552 8.70039 8.735 8.60746 7.43656C8.59544 7.27145 8.52355 7.11713 8.4062 7.00446C8.28884 6.89179 8.13467 6.82909 7.97453 6.82891C7.91429 6.83016 7.85442 6.83887 7.7962 6.85487C7.65474 6.89856 7.53222 6.99144 7.44938 7.11779C7.36654 7.24414 7.32846 7.39617 7.34159 7.54821C7.41443 8.46231 7.25368 10.3554 5.02081 11.7032C4.92337 11.7622 4.81224 11.7928 4.69932 11.7915H0.0150694V1.04568C0.0150694 1.04568 6.95228 -1.89398 11.1367 2.08442C11.1367 2.08442 16.16 1.44559 18.6466 4.61117C19.3066 5.45362 20.1029 6.17143 21 6.73279V6.73279Z" fill="white"/>
</svg>
