<svg width="18" height="18" viewBox="0 0 18 18" fill="none" xmlns="http://www.w3.org/2000/svg">
<rect x="1.02081" y="1.02081" width="16" height="16" rx="8" fill="url(#paint0_linear_701_184)"/>
<rect x="1.02081" y="1.02081" width="16" height="16" rx="8" stroke="#FF0000"/>
<path d="M13.1463 9.42445L11.1465 11.8242C11.0526 11.9368 10.9254 12 10.7927 12C10.6601 12 10.5328 11.9368 10.439 11.8242C10.3452 11.7116 10.2925 11.5589 10.2925 11.3997C10.2925 11.2405 10.3452 11.0879 10.439 10.9753L11.5858 9.59993H6.00003L7.1468 10.9753C7.24061 11.0879 7.29332 11.2405 7.29332 11.3997C7.29332 11.5589 7.24061 11.7116 7.1468 11.8242C7.05299 11.9368 6.92575 12 6.79308 12C6.66041 12 6.53318 11.9368 6.43936 11.8242L4.43954 9.42445C4.39305 9.36874 4.35618 9.30257 4.33102 9.22974C4.30586 9.15691 4.29291 9.07884 4.29291 9C4.29291 8.92116 4.30586 8.84309 4.33102 8.77026C4.35618 8.69743 4.39305 8.63126 4.43954 8.57555L6.43936 6.17581C6.53318 6.06324 6.66041 6 6.79308 6C6.92575 6 7.05299 6.06324 7.1468 6.17581C7.24061 6.28839 7.29332 6.44107 7.29332 6.60027C7.29332 6.75947 7.24061 6.91215 7.1468 7.02472L6.00003 8.40007H11.5858L10.439 7.02472C10.3452 6.91215 10.2925 6.75947 10.2925 6.60027C10.2925 6.44107 10.3452 6.28839 10.439 6.17581C10.5328 6.06324 10.6601 6 10.7927 6C10.9254 6 11.0526 6.06324 11.1465 6.17581L13.1463 8.57555C13.1928 8.63126 13.2296 8.69743 13.2548 8.77026C13.28 8.84309 13.2929 8.92116 13.2929 9C13.2929 9.07884 13.28 9.15691 13.2548 9.22974C13.2296 9.30257 13.1928 9.36874 13.1463 9.42445Z" fill="white"/>
<defs>
<linearGradient id="paint0_linear_701_184" x1="-3.47861" y1="-3.43635" x2="22.452" y2="22.4943" gradientUnits="userSpaceOnUse">
<stop stop-color="#FF0000"/>
<stop offset="1" stop-color="#FF0000" stop-opacity="0"/>
</linearGradient>
</defs>
</svg>
