<svg width="19" height="19" viewBox="0 0 19 19" fill="none" xmlns="http://www.w3.org/2000/svg">
<path d="M8.30241 15.0632L11.1341 14.9681C11.1579 15.676 10.6741 16.401 9.76584 16.4315C8.85756 16.462 8.32619 15.7712 8.30241 15.0632ZM15.4526 11.8286L14.6257 10.5481C14.3125 10.0632 14.137 9.50209 14.1177 8.92654L14.0552 7.06684C13.9701 4.53314 11.838 2.54164 9.30287 2.62679C6.76776 2.71194 4.77405 4.84202 4.85915 7.37572L4.92162 9.23543C4.94095 9.81098 4.80352 10.3826 4.52352 10.8874L3.78443 12.2205C3.55851 12.6264 3.56898 13.1066 3.81195 13.5038C4.05493 13.901 4.47788 14.1286 4.94299 14.113L14.4251 13.7945C14.8909 13.7788 15.2976 13.5227 15.5134 13.1108C15.7271 12.6989 15.7053 12.2191 15.4526 11.8286Z" fill="black"/>
</svg>