<svg width="19" height="19" viewBox="0 0 19 19" fill="none" xmlns="http://www.w3.org/2000/svg">
<path d="M8.30266 15.0633L11.1344 14.9682C11.1582 15.6761 10.6744 16.4011 9.76608 16.4316C8.8578 16.4621 8.32643 15.7712 8.30266 15.0633ZM15.4529 11.8286L14.626 10.5481C14.3127 10.0633 14.1373 9.50216 14.1179 8.92661L14.0555 7.0669C13.9704 4.5332 11.8382 2.5417 9.30311 2.62685C6.768 2.712 4.77429 4.84208 4.8594 7.37578L4.92186 9.23549C4.94119 9.81104 4.80376 10.3827 4.52376 10.8875L3.78468 12.2206C3.55876 12.6265 3.56923 13.1066 3.8122 13.5039C4.05517 13.9011 4.47812 14.1286 4.94323 14.113L14.4253 13.7945C14.8911 13.7789 15.2978 13.5228 15.5136 13.1108C15.7273 12.699 15.7055 12.2192 15.4529 11.8286Z" fill="#525252"/>
</svg>
