<svg width="23" height="27" viewBox="0 0 23 27" fill="none"
  xmlns="http://www.w3.org/2000/svg">
  <path d="M1.38718 24.5957V23.2237H3.77537V20.1284H1.39174V17.7928H3.82552C3.80077 16.7269 3.88478 15.7177 3.77276 14.6898H1.39109V12.0801C2.15697 11.7656 2.8408 11.3037 3.37679 10.6534C4.12704 9.74386 4.4696 8.68701 4.44616 7.5221C4.40969 5.75446 4.35042 3.98425 4.30158 2.21919C4.29322 2.09658 4.31374 1.97373 4.36151 1.86026L7.2505 5.35565L9.19583 3.78678L6.23713 0.176892L6.44359 0C6.48147 0.0251576 6.51718 0.0533441 6.55039 0.0842687C7.85292 1.54186 9.44721 2.49064 11.3977 2.80583C11.7019 2.85472 12.0405 2.78075 12.3492 2.70549C13.9774 2.31118 15.345 1.48333 16.4802 0.272099C16.531 0.218066 16.574 0.156312 16.6248 0.0926312L16.955 0.338347L13.9201 4.03057L15.8667 5.59622L18.8664 1.96833C18.8664 2.42696 18.8743 2.82641 18.8664 3.22523C18.8306 4.68217 18.7466 6.13976 18.7596 7.59928C18.7779 9.6448 19.7515 11.1223 21.6363 11.9978C21.6949 12.0248 21.7515 12.055 21.8206 12.0898V14.6853H19.4408C19.2858 15.6894 19.3998 16.6748 19.3503 17.7201C19.5131 17.7529 19.6701 17.8108 19.8284 17.8134C20.4796 17.8236 21.1309 17.8179 21.8062 17.8179V20.1187H19.4018C19.349 21.1569 19.3822 22.1501 19.3803 23.2031H21.8101V24.6002C15.0084 27.8014 8.20069 27.7999 1.38718 24.5957ZM17.3431 15.7016C16.9139 15.5601 6.57515 15.5987 6.36088 15.726V21.3924H17.3451L17.3431 15.7016Z" fill="white"/>
  <path d="M3.39372 20.5414V22.8139H0.000635999V20.5414H3.39372Z" fill="white"/>
  <path d="M0 17.3888V15.1445H3.38981V17.3888H0Z" fill="white"/>
  <path d="M19.814 22.8172V20.5362H22.9935V22.8172H19.814Z" fill="white"/>
  <path d="M23 17.3869H19.8205V15.1439H23V17.3869Z" fill="white"/>
  <path d="M4.75877 1.6956L6.08018 0.63167L8.62663 3.71924L7.30586 4.78509L4.75877 1.6956Z" fill="white"/>
  <path d="M17.039 0.874818L18.3611 1.93874L15.8179 5.03338L14.4938 3.97011L17.039 0.874818Z" fill="white"/>
  <path d="M6.74903 21.0373V16.056H16.9524V21.0373H6.74903Z" fill="white"/>
</svg>
