<svg width="42" height="23" viewBox="0 0 42 23" fill="none" xmlns="http://www.w3.org/2000/svg">
<path d="M0.0280843 12.5037C0.0473756 12.4094 0.0865738 12.3201 0.143209 12.2413C0.199843 12.1625 0.27268 12.096 0.357118 12.0459C0.441556 11.9959 0.535758 11.9634 0.633775 11.9505C0.731791 11.9376 0.831495 11.9446 0.926579 11.9711C2.14172 12.3116 3.33757 12.7146 4.56235 12.8442C5.9993 13.0004 7.47804 12.7802 8.90213 12.7255C8.90213 10.2405 8.87963 7.88363 8.90213 5.51737C8.93267 2.87308 10.4419 0.88478 12.8787 0.174119C13.7016 -0.0664123 14.4249 -0.0570295 15.235 0.400605C18.8242 2.43107 22.4503 2.15929 26.0153 0.316257C26.5999 0.00397143 27.2847 -0.0808902 27.9313 0.078846C30.1687 0.547414 31.9496 2.40295 32.1601 4.63489C32.2839 5.95157 32.2357 7.2901 32.2485 8.6099C32.2614 9.9297 32.2485 11.2651 32.2485 12.763C33.6373 12.763 35.1417 12.9285 36.5771 12.7161C37.7729 12.5381 38.9238 12.0914 40.0907 11.6931C40.1868 11.6603 40.2886 11.6464 40.3903 11.6522C40.492 11.6581 40.5914 11.6836 40.6829 11.7272C40.7743 11.7708 40.8559 11.8317 40.9228 11.9063C40.9898 11.9809 41.0407 12.0677 41.0728 12.1616C41.1853 12.4857 41.2063 12.8331 41.1337 13.1677C41.061 13.5023 40.8973 13.8118 40.6597 14.064C39.6503 15.1902 38.5943 16.3413 37.347 17.1878C33.1486 20.032 28.3877 21.4565 23.3247 21.8876C16.2155 22.492 9.67365 20.8177 3.78601 16.9051C2.56926 16.0961 1.53576 14.9949 0.519926 13.9375C0.161492 13.5658 -0.0860359 13.08 0.0280843 12.5037ZM10.0498 12.5303C9.312 13.141 9.21556 13.9063 10.1189 14.5248C10.9488 15.0858 11.8614 15.5213 12.8256 15.8165C15.2945 16.5787 17.863 16.763 20.4379 16.7349C22.9871 16.7068 25.5251 16.4912 27.9457 15.6572C28.7726 15.3708 29.5457 14.955 30.2346 14.4264C31.0013 13.8313 30.8775 12.9801 30.3021 12.5521C23.479 15.0964 16.8359 15.1558 10.0498 12.5303Z" fill="white"/>
</svg>
