<svg width="30" height="30" viewBox="0 0 30 30" fill="none" xmlns="http://www.w3.org/2000/svg">
<path d="M5.83668 15.1344C5.60535 15.0187 5.40872 14.9031 5.20052 14.8128C3.77553 14.2345 2.34707 13.6562 0.920922 13.0779C0.143654 12.761 -0.00439692 12.3746 0.378454 11.6402C1.4391 9.60908 2.49743 7.57801 3.5708 5.55387C4.19893 4.34104 5.25867 3.40757 6.54107 2.93754C7.35073 2.62987 8.16848 2.35112 8.94459 2.07352C9.3043 1.56344 9.63858 1.09383 9.96938 0.619608C10.3002 0.145382 10.727 -0.0662786 11.3076 0.0181567C13.6764 0.361101 16.0823 0.361101 18.4511 0.0181567C19.0074 -0.061652 19.4284 0.147701 19.7454 0.596481C20.0808 1.06724 20.4128 1.54031 20.7864 2.07121C21.5012 2.3303 22.275 2.61598 23.0522 2.89127C24.4182 3.35793 25.5487 4.33827 26.2041 5.62443C27.252 7.61849 28.2984 9.61293 29.3432 11.6078C29.7457 12.3769 29.6046 12.754 28.7938 13.086C27.3688 13.6643 25.9404 14.2426 24.5142 14.8279C24.3038 14.9242 24.0984 15.0311 23.8989 15.1483C23.8989 15.3796 23.8885 15.5681 23.8989 15.7567C24.148 19.8157 24.3993 23.874 24.653 27.9315C24.712 28.8569 24.4506 29.1692 23.5276 29.1692H6.23687C5.2676 29.1692 5.02124 28.8742 5.08023 27.9049C5.33777 23.8466 5.58838 19.788 5.83205 15.7289C5.84708 15.5577 5.83668 15.3854 5.83668 15.1344ZM14.8585 4.60889C14.3496 5.05072 13.9008 5.44399 13.4486 5.83147C12.5337 6.61568 11.7923 6.63187 10.993 5.71581C10.225 4.84254 9.57727 3.86516 8.82661 2.86351L8.3547 3.03123C8.83008 4.19482 9.51134 5.15368 10.3141 6.04892C11.3261 7.17781 12.4839 7.3779 13.5989 6.63649C13.6174 6.62377 13.666 6.65731 13.7273 6.67813C13.7366 6.8204 13.7551 6.97193 13.7574 7.12345C13.7828 8.55307 13.8152 8.57504 15.2217 8.52531C15.7272 8.5068 15.9701 8.29398 15.9597 7.78621C15.9516 7.39989 15.9597 7.01241 15.9597 6.5139C16.922 7.1593 17.8103 7.31198 18.6327 6.71284C19.905 5.78752 20.7343 4.50364 21.3832 3.02544L20.754 2.81724L20.8557 2.95836C20.1086 3.92648 19.4065 4.93507 18.598 5.84998C17.9387 6.59255 17.1591 6.56594 16.4003 5.92747C15.903 5.51107 15.4126 5.07849 14.8689 4.61583L14.8585 4.60889ZM18.7541 0.845163H10.9814C12.0224 2.36847 13.3942 3.23133 14.8655 4.02594C16.3494 3.22786 17.7166 2.3569 18.7599 0.846321L18.7541 0.845163Z" fill="white"/>
<path d="M14.8687 6.7753C14.6836 6.47688 14.4963 6.30684 14.5217 6.17036C14.5472 6.03387 14.753 5.85459 14.9127 5.82336C15.0006 5.80486 15.2319 6.04544 15.233 6.17036C15.2226 6.32419 15.0503 6.47919 14.8687 6.7753Z" fill="white"/>
</svg>
