<svg width="28" height="24" viewBox="0 0 28 24" fill="none"
  xmlns="http://www.w3.org/2000/svg">
  <path d="M18.6062 4.73183L19.3839 5.81019C20.5949 5.2813 21.8107 4.80784 22.9685 4.2267C23.9442 3.71811 25.0583 3.52526 26.152 3.67565C26.5562 3.72949 27.0908 3.95751 27.2534 4.2647C27.3758 4.49748 27.1021 5.09287 26.8299 5.33831C25.8857 6.19521 24.8916 6.99729 23.8525 7.74046C21.8123 9.18776 19.7237 10.5686 17.6593 11.9842C17.4928 12.1165 17.3362 12.2604 17.1907 12.4149L17.3357 12.6208C17.5579 12.5307 17.7732 12.4249 17.9798 12.3041C20.8278 10.3321 23.6727 8.3559 26.5143 6.37549C26.8976 6.10788 27.2325 5.88936 27.7204 6.499C27.503 6.78086 27.3178 7.15773 27.0183 7.39367C24.4676 9.40628 21.9218 11.4268 19.3099 13.3618C18.7279 13.7681 18.0283 13.9792 17.3147 13.9635C15.2874 13.8701 13.2681 13.612 11.2536 13.4172C10.595 12.0127 10.7705 10.9454 11.9202 10.0191C14.0974 8.25034 16.3324 6.51959 18.6062 4.73183Z" fill="white"/>
  <path d="M11.2633 23.2364C10.4662 20.9816 10.7802 19.6388 12.3325 18.4274C13.9734 18.5731 15.6577 18.6966 17.3324 18.8819C18.2435 18.9984 19.1645 18.7559 19.8944 18.2073C21.9878 16.6951 24.1021 15.1987 26.2051 13.6944C26.4209 13.536 26.6319 13.3777 26.9089 13.1766L27.8927 13.9192C27.3823 14.5352 27.0087 15.186 26.4547 15.612C24.7237 16.9405 22.9346 18.1994 21.1408 19.4551C19.9846 20.2658 18.7817 21.0148 17.6175 21.8161C17.4081 21.9617 17.2857 22.2325 17.1231 22.4494L17.4162 22.7139L27.4161 15.8257C27.5368 15.9397 27.9265 16.1424 27.9845 16.41C28.0473 16.7046 27.9137 17.2018 27.6818 17.3744C24.823 19.5153 21.9416 21.6266 19.0377 23.7083C18.6744 23.934 18.2446 24.0332 17.8171 23.9902C15.64 23.7669 13.4613 23.4914 11.2633 23.2364Z" fill="white"/>
  <path d="M26.9169 8.15374L27.9378 8.44669C27.4982 8.97558 27.2245 9.45537 26.8106 9.7689C24.9781 11.1845 23.1263 12.5764 21.2455 13.9271C20.0812 14.7648 18.8461 15.5106 17.6561 16.3134C17.4538 16.4818 17.2707 16.6713 17.1102 16.8787L17.3969 17.1954L27.2196 10.396C27.4145 10.6351 27.7897 10.9058 27.8476 11.2305C27.896 11.4965 27.6383 11.9272 27.3855 12.114C24.904 13.954 22.3839 15.745 19.896 17.5786C18.9798 18.2548 18.0072 18.4512 16.8767 18.315C15.0168 18.0917 13.1457 17.9682 11.3067 17.8067C10.471 16.201 10.727 15.2984 12.3599 14.0538C13.5499 14.1536 14.7753 14.2581 15.9927 14.3578C16.7109 14.4148 17.4806 14.6476 18.136 14.4719C18.8993 14.2676 19.6158 13.772 20.2632 13.2858C22.487 11.6184 24.6609 9.90191 26.9169 8.15374Z" fill="white"/>
  <path d="M12.6642 2.7889C12.4661 3.27345 12.2987 3.68357 12.1328 4.09211L12.318 4.30904L14.4822 3.55056L14.5322 3.64081C13.8735 4.13011 13.2053 4.60199 12.5612 5.10871C10.8043 6.4895 9.08454 7.91939 7.29873 9.26377C6.17152 10.1173 5.92353 11.1355 6.37764 12.3959C6.43078 12.5432 6.45815 12.6984 6.51612 12.92C6.03303 12.92 5.58859 12.9454 5.14898 12.92C4.05398 12.8456 2.96221 12.73 1.86721 12.6619C1.07495 12.6128 0.368031 12.483 0.108774 11.5931C-0.1376 10.7475 0.126489 9.93516 0.875274 9.35877C3.02877 7.69928 5.18173 6.04401 7.33415 4.39297C7.58857 4.1982 7.88648 4.04144 8.08938 3.80392C9.35989 2.32019 11.0249 2.76357 12.6642 2.7889Z" fill="white"/>
  <path d="M17.107 2.29485L18.3485 4.25679C17.0184 5.30189 15.7238 6.31532 14.4307 7.33667C13.4645 8.09516 12.5306 8.88848 11.5322 9.60897C10.4259 10.4118 10.0169 11.4046 10.4356 12.7078C10.4762 12.8595 10.5079 13.0134 10.5306 13.1686C10.526 13.2272 10.5146 13.2851 10.4968 13.3412L7.26007 13.0641C6.35348 11.2875 6.43238 10.6541 7.85749 9.52346C10.8864 7.10706 13.946 4.75875 17.107 2.29485ZM13.0732 6.95663C12.3277 6.77453 11.946 6.95663 11.7673 7.6502C12.4372 7.8988 12.7995 7.66128 13.0732 6.95663ZM10.785 9.21785L10.6707 8.9629C9.94925 8.68738 9.6272 8.86631 9.51287 9.8449L10.785 9.21785ZM15.5031 5.04853C14.7817 4.92502 14.376 5.0707 14.231 5.7801C14.9025 5.99862 15.2664 5.7896 15.5031 5.04853Z" fill="white"/>
  <path d="M7.35024 17.9872C5.81564 19.4123 6.091 20.9784 6.5451 22.6838L4.09102 22.4083C3.28587 22.3164 2.49361 22.2278 1.6949 22.128C0.223096 21.9427 -0.472544 20.5018 0.351925 19.2635C0.760939 18.6507 1.28911 18.117 1.80119 17.5042L7.35024 17.9872Z" fill="white"/>
  <path d="M7.39212 13.6247C5.8253 14.7062 6.0282 15.9793 6.58697 17.3965C4.6353 17.2113 2.82372 17.1036 1.03469 16.8423C0.0540234 16.6998 -0.346943 14.9991 0.366416 14.2185C0.756106 13.7925 1.23759 13.4505 1.69813 13.053L7.39212 13.6247Z" fill="white"/>
  <path d="M10.5853 23.1509L7.30999 22.7836C6.23109 21.0021 6.529 19.3854 8.21014 18.0569L11.4806 18.3498C9.97019 19.7749 10.2327 21.3948 10.5853 23.1509Z" fill="white"/>
  <path d="M10.4903 17.7338L7.26007 17.4441C6.35831 15.6801 6.55476 14.8566 8.14573 13.7039L11.3663 13.9525C11.0008 14.5605 10.5241 15.0704 10.3873 15.6563C10.2504 16.2422 10.4372 16.9484 10.4903 17.7338Z" fill="white"/>
  <path d="M17.851 2.41837C19.9073 2.45004 21.6722 2.13967 23.334 1.07398C23.5627 1.8008 23.7736 2.46428 24.0071 3.20694L19.5466 5.15146L17.851 2.41837Z" fill="white"/>
  <path d="M15.6964 0.128644C18.2084 -0.131047 20.5273 -0.0297015 23.0071 0.730371C22.8606 0.785793 22.7124 0.834881 22.5691 0.88872C20.9588 1.57754 19.2761 2.01774 17.5112 1.83881C16.9766 1.78181 16.4323 1.44452 15.983 1.11674C15.7817 0.971061 15.8027 0.530849 15.6964 0.128644Z" fill="white"/>
  <path d="M16.0941 2.13017L13.2375 3.46505L13.0974 3.33045L15.0297 0.700284L16.0941 2.13017Z" fill="white"/>
</svg>
