<svg width="22" height="29" viewBox="0 0 22 29" fill="none" xmlns="http://www.w3.org/2000/svg">
<path d="M0.158457 9.51945C-0.0580562 11.1536 -0.0526651 12.8098 0.174482 14.4424C0.301674 15.3747 0.435876 16.3311 0.582097 17.2855C0.682247 17.9661 0.922608 18.101 1.58861 17.9751C3.49148 17.6167 5.39434 17.506 7.29721 17.8745C7.75289 17.9631 8.09341 17.8292 8.25565 17.3711C9.03082 15.2056 9.75791 13.026 9.58966 10.6752C9.45646 8.77748 9.17503 6.90996 8.20657 5.22567C8.04948 4.94924 7.86958 4.68656 7.66877 4.4404C6.33476 2.8296 4.54106 2.63731 2.9066 3.93702C1.40433 5.13103 0.650198 6.77707 0.302675 8.61036C0.24659 8.91037 0.199519 9.2124 0.158457 9.51945Z" fill="white"/>
<path d="M8.16149 20.9682L1.42335 21.8591C1.50547 22.8327 1.5235 23.7871 1.68474 24.7153C1.82796 25.5267 2.03727 26.3603 2.39982 27.0932C3.12291 28.551 4.38481 29.0665 6.04731 28.7453C7.60766 28.4433 8.51703 27.4547 8.71332 25.8469C8.87056 24.5633 8.62119 22.288 8.16149 20.9682Z" fill="white"/>
<path d="M21.14 6.43775C21.3561 8.07194 21.3507 9.72802 21.124 11.3608C20.9968 12.293 20.8626 13.2494 20.7164 14.2048C20.6163 14.8844 20.3759 15.0193 19.7149 14.8934C17.812 14.535 15.9092 14.4243 14.0063 14.7928C13.5506 14.8814 13.2101 14.7475 13.0479 14.2894C12.2727 12.1239 11.5456 9.94427 11.7138 7.59351C11.847 5.69578 12.1285 3.82826 13.0969 2.14397C13.254 1.86755 13.4339 1.60487 13.6347 1.3587C14.9687 -0.252097 16.7624 -0.444386 18.3969 0.855328C19.8992 2.05034 20.6523 3.69537 21.0008 5.52866C21.0519 5.82867 21.096 6.13069 21.14 6.43775Z" fill="white"/>
<path d="M13.137 17.8866L19.8751 18.7765C19.793 19.7501 19.775 20.7044 19.6137 21.6327C19.4705 22.4441 19.2612 23.2777 18.8977 24.0106C18.1756 25.4694 16.9137 25.9838 15.2512 25.6627C13.6908 25.3607 12.7815 24.372 12.5852 22.7643C12.4279 21.4817 12.6773 19.2064 13.137 17.8866Z" fill="white"/>
</svg>
