<svg width="25" height="25" viewBox="0 0 25 25" fill="none" xmlns="http://www.w3.org/2000/svg">
<rect x="12.0208" y="0.707107" width="16" height="16" rx="8" transform="rotate(45 12.0208 0.707107)" fill="url(#paint0_linear_701_59)"/>
<rect x="12.0208" y="0.707107" width="16" height="16" rx="8" transform="rotate(45 12.0208 0.707107)" stroke="#FF0000"/>
<path d="M16.1463 12.4245L14.1465 14.8242C14.0526 14.9368 13.9254 15 13.7927 15C13.6601 15 13.5328 14.9368 13.439 14.8242C13.3452 14.7116 13.2925 14.5589 13.2925 14.3997C13.2925 14.2405 13.3452 14.0879 13.439 13.9753L14.5858 12.5999H9.00003L10.1468 13.9753C10.2406 14.0879 10.2933 14.2405 10.2933 14.3997C10.2933 14.5589 10.2406 14.7116 10.1468 14.8242C10.053 14.9368 9.92575 15 9.79308 15C9.66041 15 9.53318 14.9368 9.43936 14.8242L7.43954 12.4245C7.39305 12.3687 7.35618 12.3026 7.33102 12.2297C7.30586 12.1569 7.29291 12.0788 7.29291 12C7.29291 11.9212 7.30586 11.8431 7.33102 11.7703C7.35618 11.6974 7.39305 11.6313 7.43954 11.5755L9.43936 9.17581C9.53318 9.06324 9.66041 9 9.79308 9C9.92575 9 10.053 9.06324 10.1468 9.17581C10.2406 9.28839 10.2933 9.44107 10.2933 9.60027C10.2933 9.75947 10.2406 9.91215 10.1468 10.0247L9.00003 11.4001H14.5858L13.439 10.0247C13.3452 9.91215 13.2925 9.75947 13.2925 9.60027C13.2925 9.44107 13.3452 9.28839 13.439 9.17581C13.5328 9.06324 13.6601 9 13.7927 9C13.9254 9 14.0526 9.06324 14.1465 9.17581L16.1463 11.5755C16.1928 11.6313 16.2296 11.6974 16.2548 11.7703C16.28 11.8431 16.2929 11.9212 16.2929 12C16.2929 12.0788 16.28 12.1569 16.2548 12.2297C16.2296 12.3026 16.1928 12.3687 16.1463 12.4245Z" fill="white"/>
<defs>
<linearGradient id="paint0_linear_701_59" x1="8.02139" y1="-3.95716" x2="33.952" y2="21.9735" gradientUnits="userSpaceOnUse">
<stop stop-color="#FF0000"/>
<stop offset="1" stop-color="#FF0000" stop-opacity="0"/>
</linearGradient>
</defs>
</svg>
