<svg width="210" height="68" viewBox="0 0 210 68" fill="none" xmlns="http://www.w3.org/2000/svg">
<path d="M13.9058 47.4593H16.7222C18.2993 47.4593 19.5948 47.1025 20.6087 46.3891C21.6226 45.638 22.1296 44.549 22.1296 43.1221C22.1296 41.6951 21.6602 40.6249 20.7214 39.9115C19.8202 39.1604 18.3744 38.7849 16.3842 38.7849C15.896 38.7849 15.4642 38.8037 15.0887 38.8412C14.7132 38.8788 14.3189 38.9351 13.9058 39.0102V47.4593ZM17.7361 54.9508H4.16125V35.0673C4.16125 34.2788 4.38656 33.6779 4.83718 33.2649C5.28779 32.8143 5.86984 32.4575 6.58331 32.1947C7.86006 31.744 9.34334 31.4249 11.0331 31.2371C12.723 31.0118 14.5254 30.8991 16.4405 30.8991C21.6226 30.8991 25.528 32.0069 28.1565 34.2224C30.7851 36.4004 32.0994 39.3294 32.0994 43.0094C32.0994 45.3001 31.4423 47.3466 30.128 49.1491C28.8512 50.9515 27.1239 52.3785 24.9459 53.4299C22.8055 54.4438 20.4022 54.9508 17.7361 54.9508ZM15.652 52.754L24.6079 50.9515C25.4341 52.0781 26.279 53.1858 27.1427 54.2748C28.0063 55.3638 28.8137 56.4153 29.5647 57.4291C30.3533 58.443 31.0668 59.3818 31.7051 60.2455C32.3435 61.1092 32.8505 61.8602 33.226 62.4986C32.8505 63.7753 32.1558 64.7704 31.1419 65.4839C30.1655 66.1974 29.0578 66.5541 27.8186 66.5541C26.2039 66.5541 24.9647 66.1974 24.101 65.4839C23.2749 64.7704 22.5051 63.8316 21.7916 62.6676L15.652 52.754ZM4.16125 51.1205H14.0185V65.9345C13.6054 66.0472 12.967 66.1598 12.1034 66.2725C11.2397 66.3851 10.3572 66.4415 9.45599 66.4415C7.50332 66.4415 6.1327 66.1035 5.34412 65.4276C4.55554 64.7141 4.16125 63.4937 4.16125 61.7663V51.1205ZM72.0106 48.8674C72.0106 52.7728 71.222 56.0773 69.6449 58.781C68.1053 61.4847 65.9836 63.5312 63.2799 64.9206C60.6138 66.31 57.5721 67.0047 54.155 67.0047C50.7378 67.0047 47.6774 66.31 44.9737 64.9206C42.3075 63.5312 40.2046 61.4847 38.665 58.781C37.1254 56.0773 36.3556 52.7728 36.3556 48.8674C36.3556 44.9621 37.1442 41.6764 38.7214 39.0102C40.2985 36.3065 42.4202 34.26 45.0863 32.8706C47.79 31.4812 50.8129 30.7865 54.155 30.7865C57.497 30.7865 60.5199 31.4812 63.2236 32.8706C65.9273 34.26 68.0677 36.3065 69.6449 39.0102C71.222 41.6764 72.0106 44.9621 72.0106 48.8674ZM61.8718 48.8674C61.8718 45.5254 61.1771 43.0094 59.7877 41.3196C58.3983 39.5923 56.5207 38.7286 54.155 38.7286C51.8643 38.7286 50.0055 39.5735 48.5786 41.2633C47.1892 42.9531 46.4945 45.4878 46.4945 48.8674C46.4945 52.2846 47.1892 54.8381 48.5786 56.5279C50.0055 58.2177 51.8831 59.0626 54.2113 59.0626C56.5395 59.0626 58.3983 58.2177 59.7877 56.5279C61.1771 54.8381 61.8718 52.2846 61.8718 48.8674ZM92.6897 67.0047C89.5353 67.0047 86.8129 66.4415 84.5222 65.3149C82.2692 64.1884 80.523 62.6112 79.2838 60.5835C78.0822 58.5557 77.4814 56.19 77.4814 53.4863V50.0503H87.3386V53.3173C87.3386 55.0822 87.8268 56.4904 88.8031 57.5418C89.817 58.5557 91.1125 59.0626 92.6897 59.0626C94.2668 59.0626 95.5436 58.5557 96.5199 57.5418C97.5338 56.4904 98.0407 55.0822 98.0407 53.3173V50.0503H107.898V53.4863C107.898 56.19 107.278 58.5557 106.039 60.5835C104.838 62.6112 103.091 64.1884 100.801 65.3149C98.5477 66.4415 95.844 67.0047 92.6897 67.0047ZM87.3386 51.5711H77.4814V31.744C77.932 31.6689 78.5891 31.5751 79.4528 31.4624C80.354 31.3122 81.2177 31.2371 82.0439 31.2371C83.9214 31.2371 85.2733 31.5563 86.0994 32.1947C86.9255 32.833 87.3386 34.0722 87.3386 35.9122V51.5711ZM107.898 51.6838H98.0407V31.744C98.4913 31.6689 99.1485 31.5751 100.012 31.4624C100.913 31.3122 101.777 31.2371 102.603 31.2371C104.481 31.2371 105.833 31.5563 106.659 32.1947C107.485 32.833 107.898 34.0722 107.898 35.9122V51.6838ZM124.856 47.6846H127.56C129.099 47.6846 130.338 47.3091 131.277 46.558C132.253 45.7695 132.742 44.6617 132.742 43.2347C132.742 41.8078 132.291 40.7188 131.39 39.9678C130.526 39.1792 129.249 38.7849 127.56 38.7849C126.959 38.7849 126.452 38.8037 126.039 38.8412C125.663 38.8412 125.269 38.8788 124.856 38.9539V47.6846ZM128.179 55.4014H115.055V35.0673C115.055 34.2788 115.28 33.6779 115.731 33.2649C116.182 32.8143 116.764 32.4575 117.477 32.1947C118.754 31.744 120.275 31.4249 122.04 31.2371C123.804 31.0118 125.382 30.8991 126.771 30.8991C131.916 30.8991 135.858 32.0069 138.6 34.2224C141.378 36.438 142.768 39.4421 142.768 43.2347C142.768 45.6756 142.167 47.816 140.965 49.656C139.764 51.4585 138.074 52.8667 135.896 53.8805C133.718 54.8944 131.146 55.4014 128.179 55.4014ZM115.055 51.1205H124.912V65.9345C124.499 66.0472 123.861 66.1598 122.997 66.2725C122.133 66.3851 121.251 66.4415 120.35 66.4415C118.397 66.4415 117.026 66.1035 116.238 65.4276C115.449 64.7141 115.055 63.4937 115.055 61.7663V51.1205ZM160.442 40.1368H160.104C159.766 41.1882 159.391 42.3335 158.978 43.5727C158.565 44.8119 158.133 46.1262 157.682 47.5156C157.232 48.8674 156.8 50.2756 156.387 51.7401L155.147 58.1051C154.922 58.8561 154.716 59.5883 154.528 60.3018C154.378 61.0153 154.209 61.6912 154.021 62.3296C153.871 62.968 153.721 63.5876 153.57 64.1884C153.42 64.7892 153.27 65.3712 153.12 65.9345C152.632 66.0847 152.087 66.2349 151.486 66.3851C150.885 66.5353 150.172 66.6104 149.346 66.6104C147.468 66.6104 146.06 66.2913 145.121 65.6529C144.182 64.977 143.713 64.057 143.713 62.8929C143.713 62.3671 143.788 61.8414 143.938 61.3157C144.089 60.79 144.258 60.1704 144.445 59.4569C144.746 58.2553 145.196 56.7157 145.797 54.8381C146.398 52.923 147.055 50.8764 147.769 48.6985C148.52 46.4829 149.252 44.3237 149.965 42.2209C150.716 40.118 151.392 38.2404 151.993 36.5882C152.594 34.8984 153.045 33.6592 153.345 32.8706C153.983 32.4951 154.96 32.1383 156.274 31.8004C157.588 31.4624 158.884 31.2934 160.161 31.2934C162.038 31.2934 163.709 31.5751 165.174 32.1383C166.638 32.6641 167.558 33.5277 167.934 34.7294C168.61 36.6445 169.323 38.8976 170.074 41.4886C170.863 44.0421 171.651 46.727 172.44 49.5434C173.266 52.3222 174.055 55.0446 174.806 57.7108C175.557 60.3394 176.214 62.7051 176.777 64.808C176.326 65.2961 175.65 65.7092 174.749 66.0472C173.848 66.3851 172.778 66.5541 171.539 66.5541C169.699 66.5541 168.422 66.2537 167.708 65.6529C166.995 65.0145 166.469 64.057 166.131 62.7802L164.723 57.3728L163.597 51.5711C163.221 50.1066 162.845 48.6985 162.47 47.3466C162.094 45.9948 161.738 44.718 161.4 43.5164C161.062 42.2772 160.743 41.1506 160.442 40.1368ZM150.923 58.8936L154.81 51.2895H167.201L168.384 58.8936H150.923ZM192.09 59.0063C193.93 59.0063 195.226 58.7059 195.977 58.1051C196.728 57.5042 197.103 56.8283 197.103 56.0773C197.103 55.3263 196.803 54.7442 196.202 54.3312C195.601 53.8805 194.756 53.4675 193.667 53.092L191.301 52.3034C189.123 51.5524 187.19 50.7638 185.5 49.9377C183.848 49.074 182.552 47.9662 181.613 46.6144C180.674 45.2625 180.205 43.4976 180.205 41.3196C180.205 38.1278 181.425 35.5743 183.866 33.6592C186.345 31.744 189.799 30.7865 194.23 30.7865C196.408 30.7865 198.342 30.993 200.032 31.4061C201.722 31.8191 203.055 32.4575 204.031 33.3212C205.008 34.1473 205.496 35.2175 205.496 36.5318C205.496 37.4706 205.271 38.2967 204.82 39.0102C204.369 39.7237 203.825 40.3245 203.186 40.8127C202.36 40.287 201.253 39.8364 199.863 39.4608C198.474 39.0478 196.953 38.8412 195.301 38.8412C193.611 38.8412 192.372 39.0853 191.583 39.5735C190.795 40.0241 190.4 40.6062 190.4 41.3196C190.4 41.8829 190.644 42.3523 191.132 42.7278C191.658 43.0658 192.39 43.385 193.329 43.6854L196.315 44.6429C199.882 45.7695 202.604 47.234 204.482 49.0364C206.36 50.8013 207.298 53.1858 207.298 56.19C207.298 59.3818 206.022 61.9916 203.468 64.0194C200.952 66.0096 197.272 67.0047 192.428 67.0047C190.137 67.0047 188.072 66.7606 186.232 66.2725C184.392 65.7843 182.928 65.0521 181.839 64.0757C180.75 63.0994 180.205 61.9165 180.205 60.5271C180.205 59.4381 180.524 58.5181 181.163 57.7671C181.801 56.9785 182.496 56.3777 183.247 55.9646C184.298 56.7908 185.575 57.5042 187.077 58.1051C188.617 58.7059 190.288 59.0063 192.09 59.0063Z" fill="#FF0000"/>
<path d="M79.452 30.0548C79.2387 30.2682 78.972 30.3962 78.652 30.4388C77.3507 30.6095 75.3667 30.6948 72.7 30.6948L68.956 30.6308C68.636 30.6095 68.476 30.4602 68.476 30.1828L68.54 29.8628C68.8387 29.1375 69.2653 28.1455 69.82 26.8868C70.396 25.6282 71.5907 23.3135 73.404 19.9428C75.2173 16.5508 77.0733 13.4575 78.972 10.6628C80.9133 7.84684 82.1827 6.20418 82.78 5.73484C83.0573 5.50018 83.3133 5.38284 83.548 5.38284C83.7187 5.38284 83.804 5.47884 83.804 5.67084C83.804 6.01218 83.516 6.76951 82.94 7.94284C82.364 9.11618 81.8627 10.0655 81.436 10.7908C76.4653 19.7508 73.372 25.8308 72.156 29.0308C72.1347 29.0948 72.124 29.1588 72.124 29.2228C72.124 29.5855 72.4973 29.7668 73.244 29.7668C74.6947 29.7668 76.0387 29.2975 77.276 28.3588C79.1107 26.8868 80.7533 25.2122 82.204 23.3348C82.3747 23.1642 82.5453 23.0788 82.716 23.0788C82.8867 23.0788 82.972 23.1855 82.972 23.3988C82.972 23.6122 82.8547 23.9855 82.62 24.5188C81.2333 27.5268 80.1773 29.3722 79.452 30.0548ZM96.7653 18.7268C96.9573 18.7695 97.0533 18.8335 97.0533 18.9188C97.0533 19.0468 96.9679 19.1962 96.7973 19.3668C96.5626 19.6015 96.2106 19.9108 95.7413 20.2948C95.2933 20.6788 95.0266 20.9135 94.9413 20.9988L94.4933 21.6068C94.0453 22.8655 93.3519 24.1775 92.4133 25.5428C91.4959 26.8868 90.3653 28.0708 89.0213 29.0948C87.6986 30.1188 86.4293 30.6308 85.2133 30.6308C83.6986 30.6308 82.9413 29.7028 82.9413 27.8468C82.9413 26.2042 83.4746 24.4335 84.5413 22.5348C85.6079 20.6148 86.9839 18.9828 88.6693 17.6388C90.3759 16.2735 92.0506 15.5908 93.6933 15.5908C94.8879 15.5908 95.4853 16.0602 95.4853 16.9988C95.4853 17.5108 95.2293 18.2042 94.7173 19.0788C94.6959 19.1002 94.6853 19.1322 94.6853 19.1748C94.6853 19.2175 94.7066 19.2388 94.7493 19.2388C95.5386 18.9188 96.2106 18.7482 96.7653 18.7268ZM93.7253 19.4948C93.8959 18.7482 93.9813 18.1722 93.9813 17.7668C93.9813 16.8708 93.6826 16.4228 93.0853 16.4228C92.2533 16.4228 91.2186 17.1908 89.9813 18.7268C88.7439 20.2628 87.6773 21.9908 86.7812 23.9108C85.9066 25.8308 85.4693 27.3455 85.4693 28.4548C85.4693 29.2655 85.7573 29.6708 86.3333 29.6708C87.2293 29.6708 88.2959 28.7748 89.5333 26.9828C90.7919 25.1908 91.5493 23.3882 91.8053 21.5748C91.7839 21.5322 91.7733 21.4682 91.7733 21.3828C91.7733 20.7642 92.3279 20.2095 93.4373 19.7188C93.6079 19.6548 93.7039 19.5802 93.7253 19.4948ZM98.1943 23.3988C97.8103 24.1242 96.9996 25.5535 95.7623 27.6868C97.0636 26.6415 98.1623 25.7135 99.0583 24.9028C99.9969 23.9215 101.096 22.7162 102.354 21.2868C102.418 21.2228 102.472 21.1908 102.514 21.1908C102.557 21.1908 102.578 21.2335 102.578 21.3188C102.578 21.7242 102.418 22.1188 102.098 22.5028C101.16 23.5268 100.349 24.4015 99.6663 25.1268C98.8129 26.0228 97.2236 27.3882 94.8983 29.2228C94.4289 30.0335 94.1409 30.5455 94.0343 30.7588C89.9169 38.3322 87.0796 43.2602 85.5222 45.5428C85.3729 45.7775 85.1809 46.0548 84.9462 46.3748C84.7116 46.7162 84.3276 47.1642 83.7942 47.7188C83.2609 48.2948 82.8342 48.5828 82.5142 48.5828C82.0022 48.5828 81.7462 47.8468 81.7462 46.3748C81.7462 44.1988 82.5249 41.8308 84.0822 39.2708C85.6822 36.6255 88.2742 33.8202 91.8582 30.8548L95.0583 24.6468C96.9569 21.1268 98.2583 18.8868 98.9623 17.9268C99.4103 17.3508 99.9329 16.8922 100.53 16.5508C101.128 16.1882 101.597 16.0068 101.938 16.0068C102.13 16.0068 102.226 16.0602 102.226 16.1668C102.226 16.2095 102.205 16.2735 102.162 16.3588C99.7729 20.5615 98.4503 22.9082 98.1943 23.3988ZM84.8822 39.2068C84.7116 39.4628 84.5089 39.7935 84.2742 40.1988C84.0396 40.6255 83.7196 41.3402 83.3142 42.3428C82.9089 43.3668 82.7062 44.2202 82.7062 44.9028C82.7062 45.2655 82.7702 45.4468 82.8982 45.4468C83.0049 45.4468 83.1649 45.3402 83.3782 45.1268C83.5916 44.9348 83.7729 44.7322 83.9222 44.5188L84.1462 44.1988C86.0662 41.2122 88.3489 37.2762 90.9942 32.3908C88.2636 34.7802 86.2262 37.0522 84.8822 39.2068ZM102.418 14.1828C101.885 14.1828 101.618 13.8628 101.618 13.2228C101.618 12.6255 101.842 12.0282 102.29 11.4308C102.738 10.8122 103.229 10.5028 103.762 10.5028C104.402 10.5028 104.722 10.8655 104.722 11.5908C104.722 12.1882 104.477 12.7748 103.986 13.3508C103.496 13.9055 102.973 14.1828 102.418 14.1828ZM108.593 27.9748C106.823 29.5962 105.607 30.4068 104.945 30.4068C104.647 30.4068 104.497 30.2362 104.497 29.8948C104.497 29.4682 104.679 28.8175 105.041 27.9428C105.425 27.0682 105.809 26.3002 106.193 25.6388L106.769 24.6468C106.855 24.4975 106.897 24.4015 106.897 24.3588C106.897 24.3162 106.876 24.2948 106.833 24.2948C106.748 24.2948 106.588 24.4122 106.353 24.6468C105.713 25.3508 104.977 26.1082 104.145 26.9188C103.335 27.7082 102.673 28.3268 102.161 28.7748L101.425 29.4148C100.593 30.0548 99.9533 30.3748 99.5053 30.3748C99.0359 30.3748 98.8012 30.0122 98.8012 29.2868C98.8012 28.9242 98.9079 28.3695 99.1212 27.6228C99.3133 26.8762 99.4626 26.3748 99.5693 26.1188C100.06 24.9242 100.668 23.7615 101.393 22.6308C102.14 21.5002 103.015 20.4228 104.017 19.3988C105.02 18.3535 106.183 17.5108 107.505 16.8708C108.849 16.2308 110.236 15.9108 111.665 15.9108C112.86 15.9108 113.457 16.0922 113.457 16.4548C113.457 16.6682 113.191 16.7748 112.657 16.7748C110.695 16.7748 108.849 17.6175 107.121 19.3028C105.415 20.9668 104.028 22.8868 102.961 25.0628C102.663 25.6602 102.513 26.1615 102.513 26.5668C102.513 26.8015 102.588 26.9188 102.737 26.9188C102.993 26.9188 103.324 26.7375 103.729 26.3748C103.985 26.1402 104.327 25.8308 104.753 25.4468C105.201 25.0628 105.916 24.3268 106.897 23.2388C107.879 22.1508 108.657 21.1375 109.233 20.1988C109.319 20.0282 109.447 19.8255 109.617 19.5908C109.809 19.3562 110.161 19.0468 110.673 18.6628C111.185 18.2575 111.697 18.0548 112.209 18.0548C112.487 18.0548 112.625 18.1295 112.625 18.2788C112.625 18.3215 112.593 18.3962 112.529 18.5028C112.444 18.6735 112.199 19.1002 111.793 19.7828C111.409 20.4655 111.047 21.1162 110.705 21.7348C110.364 22.3322 110.001 22.9935 109.617 23.7188C109.233 24.4228 108.924 25.0308 108.689 25.5428C108.476 26.0548 108.369 26.3962 108.369 26.5668C108.369 26.6948 108.423 26.7588 108.529 26.7588C108.849 26.7588 109.628 26.1402 110.865 24.9028C111.804 23.9215 112.903 22.7162 114.161 21.2868C114.225 21.2228 114.279 21.1908 114.321 21.1908C114.364 21.1908 114.385 21.2335 114.385 21.3188C114.385 21.7242 114.225 22.1188 113.905 22.5028C111.815 24.8282 110.044 26.6522 108.593 27.9748ZM121.163 26.5668C121.291 26.4602 121.462 26.3108 121.675 26.1188C121.91 25.9055 122.347 25.4788 122.987 24.8388C123.627 24.1775 124.235 23.5055 124.811 22.8228C125.408 22.1188 126.059 21.2548 126.763 20.2308C127.488 19.2068 128.107 18.1935 128.619 17.1908C128.64 17.1482 128.651 17.1055 128.651 17.0628L128.619 16.9668C128.47 16.8815 128.299 16.8388 128.107 16.8388C127.19 16.8388 126.048 17.5215 124.683 18.8868C123.339 20.2522 122.187 21.7242 121.227 23.3028C120.288 24.8602 119.819 25.9802 119.819 26.6628C119.819 26.9615 119.936 27.1108 120.171 27.1108C120.427 27.1108 120.758 26.9295 121.163 26.5668ZM128.235 25.1588C129.131 24.2628 130.315 22.9722 131.787 21.2868C131.851 21.2228 131.904 21.1908 131.947 21.1908C131.99 21.1908 132.011 21.2335 132.011 21.3188C132.011 21.7242 131.851 22.1188 131.531 22.5028C129.952 24.2522 128.555 25.7135 127.339 26.8868C124.822 29.2335 123.168 30.4068 122.379 30.4068C122.08 30.4068 121.931 30.2468 121.931 29.9268C121.931 29.5215 122.134 28.8815 122.539 28.0068C122.944 27.1322 123.36 26.3535 123.787 25.6708L124.395 24.6468C124.48 24.5402 124.523 24.4442 124.523 24.3588C124.523 24.3162 124.502 24.2948 124.459 24.2948C124.374 24.2948 124.256 24.3695 124.107 24.5188C123.446 25.2868 122.688 26.0762 121.835 26.8868C120.982 27.6975 120.288 28.3268 119.755 28.7748L118.987 29.4148C118.134 30.0762 117.494 30.4068 117.067 30.4068L116.939 30.3748C116.576 30.3535 116.395 30.0335 116.395 29.4148C116.395 27.7935 116.96 25.9482 118.091 23.8788C119.243 21.7882 120.726 19.9748 122.539 18.4388C124.352 16.9028 126.102 16.1348 127.787 16.1348C127.958 16.1348 128.118 16.1562 128.267 16.1988C128.416 16.2202 128.523 16.2415 128.587 16.2628C128.672 16.2842 128.747 16.3162 128.811 16.3588L128.907 16.3908C128.95 16.3908 129.003 16.3588 129.067 16.2948C133.014 9.16951 136.043 4.25218 138.155 1.54284C138.795 0.68951 139.254 0.262844 139.531 0.262844C139.638 0.262844 139.691 0.348177 139.691 0.518843C139.691 0.966843 139.35 1.88418 138.667 3.27084C135.382 9.28684 133.078 13.4575 131.755 15.7828C129.387 20.0068 127.947 22.5455 127.435 23.3988C126.39 25.1908 125.867 26.2788 125.867 26.6628C125.867 26.8122 125.931 26.8868 126.059 26.8868C126.166 26.8868 126.283 26.8548 126.411 26.7908C126.56 26.7055 126.72 26.5882 126.891 26.4388C127.062 26.2895 127.211 26.1508 127.339 26.0228C127.488 25.8948 127.659 25.7348 127.851 25.5428C128.043 25.3508 128.171 25.2228 128.235 25.1588ZM137.55 19.1428C137.806 18.6095 137.934 18.1402 137.934 17.7348C137.934 17.3935 137.827 17.2228 137.614 17.2228C137.486 17.2228 137.337 17.2655 137.166 17.3508C137.017 17.4148 136.899 17.4895 136.814 17.5748L136.654 17.7028C135.993 18.2788 135.161 19.3348 134.158 20.8708C133.177 22.3855 132.686 23.3562 132.686 23.7828C132.686 23.8682 132.707 23.9108 132.75 23.9108C132.878 23.9108 133.155 23.8042 133.582 23.5908C134.03 23.3775 134.659 22.8762 135.47 22.0868C136.302 21.2975 136.995 20.3162 137.55 19.1428ZM136.11 26.4708C137.241 25.4255 138.862 23.6975 140.974 21.2868C141.038 21.2228 141.091 21.1908 141.134 21.1908C141.177 21.1908 141.198 21.2335 141.198 21.3188C141.198 21.7242 141.038 22.1188 140.718 22.5028C139.139 24.2522 137.742 25.7135 136.526 26.8868C135.63 27.7828 134.563 28.6468 133.326 29.4788C132.089 30.2895 131.065 30.6948 130.254 30.6948C129.273 30.6948 128.782 30.0122 128.782 28.6468C128.782 26.3855 129.614 24.0175 131.278 21.5428C132.963 19.0682 134.905 17.3935 137.102 16.5188C138.019 16.1348 138.851 15.9428 139.598 15.9428C140.43 15.9428 140.846 16.2735 140.846 16.9348C140.846 18.1722 139.971 19.5908 138.222 21.1908C136.473 22.7908 134.51 24.0068 132.334 24.8388C132.249 24.8602 132.174 24.9348 132.11 25.0628C131.79 25.9375 131.63 26.7162 131.63 27.3988C131.63 28.1668 131.918 28.5508 132.494 28.5508C133.411 28.5508 134.617 27.8575 136.11 26.4708Z" fill="white"/>
<path d="M166.484 21.3148C164.652 23.3285 162.467 25.0246 160.54 26.9466C155.336 32.1377 150.507 37.8088 146.296 43.8418C144.608 46.2599 142.182 49.5242 142.003 52.6759C141.936 53.8537 143.119 53.3374 143.654 52.8968C145.176 51.6428 148.32 48.2237 149.202 47.2871C154.857 41.2823 155.034 40.9721 160.892 34.831C163.204 32.4082 167.114 28.3534 169.721 25.8644C169.956 25.6394 172.574 23.1567 173.42 22.8166C175.368 22.0325 173.77 27.0996 173.221 29.133C171.43 35.7742 168.903 42.2847 166.286 48.6343C163.966 54.2664 161.38 59.7692 158.625 65.1983C158.434 65.574 157.85 66.6883 158.096 66.3467C158.896 65.2386 159.607 64.0685 160.386 62.9456C165.054 56.2172 175.296 51.3195 180.5 45C186.431 37.7977 187.228 28.4748 194.555 22.6179C194.584 22.5943 190.034 34.3482 190.5 36.5C190.623 37.0675 200.876 23.2814 200.851 23.5234C200.619 25.7797 200.101 28.8602 199.751 31.0103C197.925 42.2119 195.904 53.394 194.423 64.6462" stroke="white" stroke-width="2" stroke-linecap="round"/>
</svg>
