<svg width="255" height="7" viewBox="0 0 255 7" fill="none" xmlns="http://www.w3.org/2000/svg">
<path d="M0 0H3V7H0V0Z" fill="#D02A28"/>
<path d="M6 0H9V7H6V0Z" fill="#D02A28"/>
<path d="M12 0H15V7H12V0Z" fill="#D02A28"/>
<path d="M18 0H21V7H18V0Z" fill="#D02A28"/>
<path d="M24 0H27V7H24V0Z" fill="#D02A28"/>
<path d="M30 0H33V7H30V0Z" fill="#D02A28"/>
<path d="M36 0H39V7H36V0Z" fill="#D02A28"/>
<path d="M42 0H45V7H42V0Z" fill="#D02A28"/>
<path d="M48 0H51V7H48V0Z" fill="#D02A28"/>
<path d="M54 0H57V7H54V0Z" fill="#D02A28"/>
<path d="M60 0H63V7H60V0Z" fill="#D02A28"/>
<path d="M66 0H69V7H66V0Z" fill="#D02A28"/>
<path d="M72 0H75V7H72V0Z" fill="#D02A28"/>
<path d="M78 0H81V7H78V0Z" fill="#D02A28"/>
<path d="M84 0H87V7H84V0Z" fill="#D02A28"/>
<path d="M90 0H93V7H90V0Z" fill="#D02A28"/>
<path d="M96 0H99V7H96V0Z" fill="#D02A28"/>
<path d="M102 0H105V7H102V0Z" fill="#D02A28"/>
<path d="M108 0H111V7H108V0Z" fill="#D02A28"/>
<path d="M114 0H117V7H114V0Z" fill="#D02A28"/>
<path d="M120 0H123V7H120V0Z" fill="#D02A28"/>
<path d="M126 0H129V7H126V0Z" fill="#D02A28"/>
<path d="M132 0H135V7H132V0Z" fill="#D02A28"/>
<path d="M138 0H141V7H138V0Z" fill="#D02A28"/>
<path d="M144 0H147V7H144V0Z" fill="#D02A28"/>
<path d="M150 0H153V7H150V0Z" fill="#D02A28"/>
<path d="M156 0H159V7H156V0Z" fill="#D02A28"/>
<path d="M162 0H165V7H162V0Z" fill="#D02A28"/>
<path d="M168 0H171V7H168V0Z" fill="#D02A28"/>
<path d="M174 0H177V7H174V0Z" fill="#D02A28"/>
<path d="M180 0H183V7H180V0Z" fill="#D02A28"/>
<path d="M186 0H189V7H186V0Z" fill="#D02A28"/>
<path d="M192 0H195V7H192V0Z" fill="#D02A28"/>
<path d="M198 0H201V7H198V0Z" fill="#D02A28"/>
<path d="M204 0H207V7H204V0Z" fill="#D02A28"/>
<path d="M210 0H213V7H210V0Z" fill="#D02A28"/>
<path d="M216 0H219V7H216V0Z" fill="#D02A28"/>
<path d="M222 0H225V7H222V0Z" fill="#D02A28"/>
<path d="M228 0H231V7H228V0Z" fill="#D02A28"/>
<path d="M234 0H237V7H234V0Z" fill="#D02A28"/>
<path d="M240 0H243V7H240V0Z" fill="#D02A28"/>
<path d="M246 0H249V7H246V0Z" fill="#D02A28"/>
<path d="M252 0H255V7H252V0Z" fill="#D02A28"/>
</svg>
