<svg width="255" height="7" viewBox="0 0 255 7" fill="none" xmlns="http://www.w3.org/2000/svg">
<rect width="3" height="7" fill="#B2EF30"/>
<rect x="6" width="3" height="7" fill="#B2EF30"/>
<rect x="12" width="3" height="7" fill="#B2EF30"/>
<rect x="18" width="3" height="7" fill="#B2EF30"/>
<rect x="24" width="3" height="7" fill="#B2EF30"/>
<rect x="30" width="3" height="7" fill="#B2EF30"/>
<rect x="36" width="3" height="7" fill="#B2EF30"/>
<rect x="42" width="3" height="7" fill="#B2EF30"/>
<rect x="48" width="3" height="7" fill="#B2EF30"/>
<rect x="54" width="3" height="7" fill="#B2EF30"/>
<rect x="60" width="3" height="7" fill="#B2EF30"/>
<rect x="66" width="3" height="7" fill="#B2EF30"/>
<rect x="72" width="3" height="7" fill="#B2EF30"/>
<rect x="78" width="3" height="7" fill="#B2EF30"/>
<rect x="84" width="3" height="7" fill="#B2EF30"/>
<rect x="90" width="3" height="7" fill="#B2EF30"/>
<rect x="96" width="3" height="7" fill="#B2EF30"/>
<rect x="102" width="3" height="7" fill="#B2EF30"/>
<rect x="108" width="3" height="7" fill="#B2EF30"/>
<rect x="114" width="3" height="7" fill="#B2EF30"/>
<rect x="120" width="3" height="7" fill="#B2EF30"/>
<rect x="126" width="3" height="7" fill="#B2EF30"/>
<rect x="132" width="3" height="7" fill="#B2EF30"/>
<rect x="138" width="3" height="7" fill="#B2EF30"/>
<rect x="144" width="3" height="7" fill="#B2EF30"/>
<rect x="150" width="3" height="7" fill="#B2EF30"/>
<rect x="156" width="3" height="7" fill="#B2EF30"/>
<rect x="162" width="3" height="7" fill="#B2EF30"/>
<rect x="168" width="3" height="7" fill="#B2EF30"/>
<rect x="174" width="3" height="7" fill="#B2EF30"/>
<rect x="180" width="3" height="7" fill="#B2EF30"/>
<rect x="186" width="3" height="7" fill="#B2EF30"/>
<rect x="192" width="3" height="7" fill="#B2EF30"/>
<rect x="198" width="3" height="7" fill="#B2EF30"/>
<rect x="204" width="3" height="7" fill="#B2EF30"/>
<rect x="210" width="3" height="7" fill="#B2EF30"/>
<rect x="216" width="3" height="7" fill="#B2EF30"/>
<rect x="222" width="3" height="7" fill="#B2EF30"/>
<rect x="228" width="3" height="7" fill="#B2EF30"/>
<rect x="234" width="3" height="7" fill="#B2EF30"/>
<rect x="240" width="3" height="7" fill="#B2EF30"/>
<rect x="246" width="3" height="7" fill="#B2EF30"/>
<rect x="252" width="3" height="7" fill="#B2EF30"/>
</svg>
