<svg width="298" height="64" viewBox="0 0 298 64" fill="none" xmlns="http://www.w3.org/2000/svg">
<path d="M226.326 49.5978C224.274 50.5997 222.029 51.7233 220.107 52.7122L215.871 50.88L216.778 49.5467C216.991 49.6178 217.116 49.6533 217.151 49.6533H217.258C217.72 49.6533 218.04 49.44 218.218 49.0133C218.431 48.5511 218.538 48.0178 218.538 47.4133V34.24C218.538 32.9244 218.52 31.8222 218.485 30.9333V29.44C218.414 29.1556 218.271 28.9067 218.058 28.6933C217.845 28.48 217.542 28.3733 217.151 28.3733H216.938C216.867 28.3733 216.724 28.4089 216.511 28.48L215.658 26.9333L227.127 23.1467V23.36C227.127 23.4667 227.091 23.6622 227.02 23.9467C227.624 23.7333 228.211 23.5378 228.78 23.36C229.349 23.1822 229.865 23.0044 230.327 22.8267C230.825 22.6844 231.305 22.5244 231.768 22.3467C231.91 22.4533 232.105 22.5956 232.354 22.7733C232.603 22.9511 232.87 23.1111 233.154 23.2533C233.581 23.5022 234.115 23.8222 234.755 24.2133C235.253 24.5179 235.795 24.8547 236.379 25.2239C236.128 25.3948 235.85 25.5774 235.541 25.7757C233.324 27.1908 232.475 28.1089 232.24 29.3152C232.027 30.3645 232.177 33.1713 232.735 39.7507C232.849 40.9837 232.96 42.2477 233.049 43.2622L233.05 43.278L233.053 43.3129C233.131 44.1959 233.191 44.8829 233.222 45.1844L233.318 46.3449L231.714 47.0658V30.9333C231.714 30.72 231.696 30.4178 231.661 30.0267C231.661 29.6356 231.625 29.3511 231.554 29.1733C231.305 28.8533 230.914 28.4444 230.381 27.9467C229.883 27.4133 229.367 26.9867 228.834 26.6667C227.873 27.0578 227.215 27.5733 226.86 28.2133C226.504 28.8533 226.326 29.5822 226.326 30.4V49.5978Z" fill="url(#paint0_linear_16_180)"/>
<path d="M16.6435 53.9733C16.1812 55.0756 15.4877 56.4267 14.563 58.0267L28.5926 51.68L27.4724 50.1333L27.3124 50.2933C27.2768 50.2933 27.2412 50.3111 27.2057 50.3467L27.1523 50.4C26.6545 50.4 26.281 50.2222 26.0321 49.8667C25.7832 49.5111 25.6587 49.0311 25.6587 48.4267V15.8933C25.6587 15.36 25.7832 14.9156 26.0321 14.56C26.281 14.1689 26.6545 13.9733 27.1523 13.9733H27.259C27.3301 13.9733 27.4013 13.9911 27.4724 14.0267C27.5435 14.0622 27.668 14.0978 27.8458 14.1333L28.646 12.64L14.4564 6.34667C15.0965 7.37778 15.5944 8.24889 15.95 8.96C16.3412 9.67111 16.6435 10.2756 16.8569 10.7733C17.0702 11.2356 17.1947 11.6267 17.2303 11.9467C17.3014 12.2667 17.337 12.5511 17.337 12.8V29.1733C16.5546 28.9956 15.8789 28.8889 15.3099 28.8533C14.7409 28.7822 14.1007 28.6933 13.3895 28.5867C12.7849 28.4444 12.0381 28.32 11.149 28.2133V12.8C11.149 12.5511 11.1846 12.2667 11.2557 11.9467C11.3268 11.5911 11.4691 11.1644 11.6824 10.6667C11.8958 10.1689 12.1803 9.56445 12.536 8.85333C12.8916 8.14222 13.3539 7.30667 13.9229 6.34667L0 12.64L0.800167 14.1333L1.4403 13.9733C1.93818 13.9733 2.29381 14.1689 2.50719 14.56C2.75613 14.9156 2.8806 15.36 2.8806 15.8933V48.4267C2.8806 49.0311 2.75613 49.5111 2.50719 49.8667C2.29381 50.2222 1.93818 50.4 1.4403 50.4L1.01354 50.24L0 51.68L13.8696 58.08C12.9449 56.48 12.2514 55.1289 11.7891 54.0267C11.3624 52.9244 11.149 51.9645 11.149 51.1467V34.08C11.9669 33.9378 12.6782 33.8133 13.2828 33.7067C13.8873 33.6 14.5453 33.4756 15.2565 33.3333C15.8967 33.1911 16.5901 33.0311 17.337 32.8533V51.1467C17.337 51.9289 17.1058 52.8711 16.6435 53.9733Z" fill="url(#paint1_linear_16_180)"/>
<path fill-rule="evenodd" clip-rule="evenodd" d="M46.0217 53.0133C46.0217 53.0489 45.9861 53.1022 45.915 53.1733L45.8083 54.7733L58.0775 50.4533L57.7041 49.0133C57.633 49.0133 57.473 49.0311 57.224 49.0667H56.7439C56.1038 49.0667 55.6593 48.8711 55.4103 48.48C55.1969 48.0533 55.0902 47.6089 55.0902 47.1467V31.84C55.0902 31.3422 55.1969 30.8622 55.4103 30.4C55.6593 29.9022 56.0149 29.6533 56.4772 29.6533H56.9573L57.9709 28.3733C56.6195 27.7333 55.3036 27.0756 54.0234 26.4C52.7431 25.6889 51.5873 25.0311 50.556 24.4267C49.3824 23.7511 48.2622 23.0578 47.1953 22.3467C45.6661 22.9511 44.1013 23.5733 42.501 24.2133C41.114 24.7822 39.5848 25.4044 37.9133 26.08C36.2419 26.7556 34.606 27.4311 33.0056 28.1067C33.0056 28.2844 33.1301 28.48 33.3791 28.6933C33.628 28.9067 33.9658 29.1378 34.3926 29.3867C34.8194 29.6356 35.2994 29.9022 35.8329 30.1867L37.5399 30.9333C38.8913 31.5378 40.4205 32.16 42.1275 32.8C42.0564 32.2667 42.0031 31.8578 41.9675 31.5733C41.9675 31.2533 41.9497 31.0044 41.9142 30.8267V30.1333C41.9142 29.4578 42.0742 28.8178 42.3943 28.2133C42.7143 27.5733 43.4078 27.0933 44.4747 26.7733C45.0437 27.0933 45.6127 27.4844 46.1817 27.9467C46.7507 28.4089 47.1953 28.8178 47.5153 29.1733V34.8267L33.8592 39.84V48.64C35.9218 49.7422 37.5577 50.8267 38.7668 51.8933C39.976 52.96 40.7228 53.6533 41.0073 53.9733L40.9006 53.8667C40.9006 53.9378 40.9362 54.0089 41.0073 54.08C41.114 54.1511 41.2029 54.2222 41.274 54.2933C41.3807 54.4 41.4874 54.4711 41.5941 54.5067L42.8744 54.08C43.2656 53.9378 43.7101 53.7778 44.208 53.6C44.7414 53.4578 45.3104 53.2622 45.915 53.0133L45.8617 53.0667C45.8972 53.0667 45.9328 53.0489 45.9683 53.0133H45.915C45.9506 52.9778 45.9861 52.96 46.0217 52.96V53.0133ZM47.302 47.04C47.302 47.3956 47.2842 47.7156 47.2486 48C47.1775 48.2133 47.1419 48.4444 47.1419 48.6933C46.7863 48.9778 46.3951 49.2267 45.9683 49.44C45.5772 49.6533 45.1326 49.8311 44.6347 49.9733C44.1369 49.6889 43.6212 49.3689 43.0877 49.0133C42.5543 48.6222 42.1809 48.2311 41.9675 47.84V40.7467C42.7855 40.5333 43.6923 40.2489 44.6881 39.8933C45.6838 39.5378 46.5907 39.1822 47.4086 38.8267V46.5067C47.3731 46.5067 47.3375 46.6844 47.302 47.04Z" fill="url(#paint2_linear_16_180)"/>
<path d="M61.5991 16.5333C62.3815 16.5333 62.7727 17.0844 62.7727 18.1867L62.666 49.9733C62.666 50.5778 62.5593 51.1289 62.3459 51.6267C62.1681 52.0889 61.937 52.5156 61.6524 52.9067L61.7058 52.8C61.6702 52.8356 61.4746 53.1556 61.119 53.76L60.7989 54.24C60.6923 54.4889 60.5678 54.7378 60.4255 54.9867C60.3188 55.2711 60.1944 55.52 60.0521 55.7333C59.9099 55.9822 59.8032 56.1778 59.7321 56.32L72.7481 52L72.3747 50.4533L71.4145 50.5067C71.2367 50.5067 71.0766 50.4178 70.9344 50.24C70.7921 50.0267 70.6677 49.7778 70.561 49.4933C70.4543 49.1733 70.3654 48.8356 70.2943 48.48C70.2587 48.0889 70.2409 47.7333 70.2409 47.4133V15.6267C70.3832 15.2 70.6677 14.5422 71.0944 13.6533C71.5567 12.7644 72.2858 11.4667 73.2815 9.76L59.9988 15.2L60.7456 16.64C61.0301 16.5689 61.2257 16.5333 61.3324 16.5333H61.5991Z" fill="url(#paint3_linear_16_180)"/>
<path d="M76.1334 16.5333C76.9158 16.5333 77.307 17.0844 77.307 18.1867L77.2003 49.9733C77.2003 50.5778 77.0936 51.1289 76.8802 51.6267C76.7024 52.0889 76.4712 52.5156 76.1867 52.9067L76.2401 52.8C76.2045 52.8356 76.0089 53.1556 75.6533 53.76L75.3332 54.24C75.2265 54.4889 75.1021 54.7378 74.9598 54.9867C74.8531 55.2711 74.7287 55.52 74.5864 55.7333C74.4441 55.9822 74.3375 56.1778 74.2663 56.32L87.2824 52L86.909 50.4533L85.9488 50.5067C85.771 50.5067 85.6109 50.4178 85.4687 50.24C85.3264 50.0267 85.202 49.7778 85.0953 49.4933C84.9886 49.1733 84.8997 48.8356 84.8285 48.48C84.793 48.0889 84.7752 47.7333 84.7752 47.4133V15.6267C84.9175 15.2 85.202 14.5422 85.6287 13.6533C86.091 12.7644 86.8201 11.4667 87.8158 9.76L74.5331 15.2L75.2799 16.64C75.5644 16.5689 75.76 16.5333 75.8667 16.5333H76.1334Z" fill="url(#paint4_linear_16_180)"/>
<path fill-rule="evenodd" clip-rule="evenodd" d="M180.808 51.04C182.515 50.3645 184.222 49.6356 185.929 48.8533L186.302 48.3733C186.302 48.2667 186.16 48.1244 185.875 47.9467C185.627 47.7333 185.271 47.52 184.809 47.3067C184.382 47.0933 183.884 46.8622 183.315 46.6133C182.781 46.3645 182.23 46.1333 181.661 45.92C180.274 45.3867 178.727 44.8178 177.02 44.2133C176.842 44.7822 176.736 45.3689 176.7 45.9733V48.8C176.309 49.0489 175.882 49.28 175.42 49.4933C174.993 49.7067 174.584 49.9022 174.193 50.08C173.624 49.7956 173.073 49.4222 172.539 48.96C172.006 48.4978 171.65 48.0711 171.472 47.68V47.6267C171.472 47.5911 171.455 47.2356 171.419 46.56V39.84L184.649 34.56V28.32C184.257 28.0356 183.795 27.68 183.262 27.2533C182.728 26.8267 182.177 26.4 181.608 25.9733C181.039 25.5111 180.488 25.0667 179.954 24.64C179.421 24.2133 178.958 23.84 178.567 23.52C178.389 23.4133 178.194 23.3067 177.98 23.2C177.767 23.0578 177.572 22.9333 177.394 22.8267C177.18 22.6844 176.949 22.56 176.7 22.4533C175.029 23.0578 173.304 23.68 171.526 24.32C169.997 24.8889 168.29 25.5467 166.405 26.2933C164.555 27.04 162.688 27.84 160.804 28.6933L161.55 30.1867C161.728 30.1156 161.87 30.08 161.977 30.08C162.084 30.08 162.155 30.0622 162.191 30.0267C162.226 30.0267 162.244 30.0089 162.244 29.9733C162.742 29.9733 163.097 30.2044 163.311 30.6667C163.524 31.0933 163.631 31.5911 163.631 32.16V45.0133C163.631 45.6178 163.489 46.1333 163.204 46.56C162.955 46.9867 162.546 47.2 161.977 47.2H159.363L159.203 47.8933C160.804 48.6756 162.333 49.4578 163.791 50.24C165.249 50.9867 166.529 51.68 167.632 52.32C168.912 53.0667 170.121 53.7956 171.259 54.5067C172.824 53.9733 174.442 53.4045 176.113 52.8C177.536 52.3022 179.101 51.7156 180.808 51.04ZM175.847 28.5333C176.416 29.1378 176.7 29.7778 176.7 30.4533V33.8133C176.167 33.9911 175.616 34.2044 175.047 34.4533C174.513 34.6667 174.033 34.88 173.606 35.0933C173.286 35.2356 172.966 35.36 172.646 35.4667C172.362 35.5378 172.077 35.6444 171.793 35.7867L171.419 35.9467V30.4C171.419 29.5822 171.579 28.8711 171.899 28.2667C172.219 27.6622 172.895 27.1644 173.926 26.7733C174.638 27.3422 175.278 27.9289 175.847 28.5333Z" fill="url(#paint5_linear_16_180)"/>
<path fill-rule="evenodd" clip-rule="evenodd" d="M208.261 51.04C209.968 50.3645 211.675 49.6356 213.382 48.8533L213.756 48.3733C213.756 48.2667 213.614 48.1244 213.329 47.9467C213.08 47.7333 212.725 47.52 212.262 47.3067C211.835 47.0933 211.338 46.8622 210.769 46.6133C210.235 46.3645 209.684 46.1333 209.115 45.92C207.728 45.3867 206.181 44.8178 204.474 44.2133C204.296 44.7822 204.189 45.3689 204.154 45.9733V48.8C203.763 49.0489 203.336 49.28 202.874 49.4933C202.447 49.7067 202.038 49.9022 201.647 50.08C201.078 49.7956 200.526 49.4222 199.993 48.96C199.46 48.4978 199.104 48.0711 198.926 47.68V47.6267C198.926 47.5911 198.908 47.2356 198.873 46.56V39.84L212.102 34.56V28.32C211.711 28.0356 211.249 27.68 210.715 27.2533C210.182 26.8267 209.631 26.4 209.062 25.9733C208.493 25.5111 207.941 25.0667 207.408 24.64C206.874 24.2133 206.412 23.84 206.021 23.52C205.843 23.4133 205.648 23.3067 205.434 23.2C205.221 23.0578 205.025 22.9333 204.847 22.8267C204.634 22.6844 204.403 22.56 204.154 22.4533C202.482 23.0578 200.758 23.68 198.979 24.32C197.45 24.8889 195.743 25.5467 193.858 26.2933C192.009 27.04 190.142 27.84 188.257 28.6933L189.004 30.1867C189.182 30.1156 189.324 30.08 189.431 30.08C189.537 30.08 189.609 30.0622 189.644 30.0267C189.68 30.0267 189.698 30.0089 189.698 29.9733C190.195 29.9733 190.551 30.2044 190.764 30.6667C190.978 31.0933 191.084 31.5911 191.084 32.16V45.0133C191.084 45.6178 190.942 46.1333 190.658 46.56C190.409 46.9867 190 47.2 189.431 47.2H186.817L186.657 47.8933C188.257 48.6756 189.786 49.4578 191.244 50.24C192.703 50.9867 193.983 51.68 195.085 52.32C196.366 53.0667 197.575 53.7956 198.713 54.5067C200.277 53.9733 201.896 53.4045 203.567 52.8C204.99 52.3022 206.554 51.7156 208.261 51.04ZM203.3 28.5333C203.869 29.1378 204.154 29.7778 204.154 30.4533V33.8133C203.62 33.9911 203.069 34.2044 202.5 34.4533C201.967 34.6667 201.487 34.88 201.06 35.0933C200.74 35.2356 200.42 35.36 200.1 35.4667C199.815 35.5378 199.531 35.6444 199.246 35.7867L198.873 35.9467V30.4C198.873 29.5822 199.033 28.8711 199.353 28.2667C199.673 27.6622 200.349 27.1644 201.38 26.7733C202.091 27.3422 202.731 27.9289 203.3 28.5333Z" fill="url(#paint6_linear_16_180)"/>
<path fill-rule="evenodd" clip-rule="evenodd" d="M114.619 29.92C114.015 29.92 113.588 30.1156 113.339 30.5067C113.09 30.8978 112.966 31.36 112.966 31.8933V44.8C112.966 45.2978 113.072 45.7956 113.286 46.2933C113.499 46.7556 113.89 46.9867 114.459 46.9867L116.968 46.9355L116.969 46.9333H119.582C120.116 46.9333 120.507 46.72 120.756 46.2933C121.041 45.8667 121.183 45.3689 121.183 44.8V29.8667C121.183 28.8356 120.827 28.32 120.116 28.32H119.796C119.689 28.32 119.494 28.3556 119.209 28.4267L118.462 26.9333L131.745 21.44C130.82 22.9333 130.109 24.1778 129.611 25.1733C129.113 26.1689 128.864 27.0578 128.864 27.84V46.72C128.9 47.0756 128.953 47.3778 129.024 47.6267C129.238 47.9822 129.629 48.3911 130.198 48.8533C130.767 49.3156 131.3 49.6889 131.798 49.9733C132.51 49.6533 133.274 49.2089 134.092 48.64C134.163 48.32 134.217 47.9289 134.252 47.4667C134.288 47.0044 134.306 46.1156 134.306 44.8V29.8667C134.306 28.8356 133.95 28.32 133.239 28.32H132.919C132.812 28.32 132.599 28.3556 132.278 28.4267L131.692 26.9333L143.854 21.92L143.587 23.7333C143.09 24.5511 142.698 25.2622 142.414 25.8667C142.129 26.4711 141.987 27.1289 141.987 27.84V45.92C141.987 46.1333 142.005 46.4178 142.04 46.7733C142.076 47.0933 142.183 47.3422 142.361 47.52C142.538 47.9111 142.876 48.3556 143.374 48.8533C143.908 49.3156 144.441 49.6889 144.974 49.9733C145.401 49.7956 145.81 49.5822 146.201 49.3333C146.619 49.0896 146.969 48.8288 147.251 48.5509C147.274 48.4798 147.298 48.3851 147.322 48.2667C147.393 48.0533 147.446 47.84 147.482 47.6267C147.517 47.4133 147.535 47.2178 147.535 47.04C147.571 46.8267 147.588 46.6667 147.588 46.56V27.84C147.588 27.1289 147.322 26.2756 146.788 25.28C146.255 24.2844 145.419 22.9689 144.281 21.3333L157.884 26.9333L157.19 28.4267C156.906 28.3556 156.71 28.32 156.604 28.32H156.283C155.572 28.32 155.217 28.8356 155.217 29.8667V45.8667C155.252 46.3645 155.27 46.6489 155.27 46.72V46.6667C155.377 47.0578 155.537 47.3778 155.75 47.6267C155.963 47.8756 156.283 48 156.71 48H159.164L159.324 48.6933L144.281 56.4267L145.401 54.56C145.864 53.8845 146.201 53.3511 146.415 52.96C145.668 53.2445 144.974 53.4933 144.334 53.7067C143.73 53.92 143.178 54.0978 142.681 54.24C142.112 54.3822 141.596 54.5245 141.134 54.6667C141.134 54.4889 140.76 54.0622 140.013 53.3867C139.302 52.7467 138.377 52.1067 137.239 51.4667C136.35 51.8222 135.426 52.16 134.466 52.48C133.505 52.8 132.598 53.0844 131.745 53.3333C130.927 53.6178 130.216 53.8489 129.611 54.0267C129.007 54.2045 128.633 54.2933 128.491 54.2933C128.242 54.1156 127.744 53.7956 126.997 53.3333C126.286 52.8711 125.397 52.32 124.33 51.68C123.299 51.04 122.125 50.3644 120.809 49.6533C119.61 48.987 118.363 48.3363 117.07 47.7012C115.027 48.6336 113.001 49.5155 110.992 50.3467C108.965 51.2 107.116 51.9289 105.444 52.5333C103.488 53.2445 101.639 53.9022 99.8963 54.5067C98.7938 53.7956 97.5847 53.0667 96.2688 52.32C95.1308 51.68 93.815 50.9689 92.3214 50.1867C90.8633 49.4044 89.3163 48.64 87.6804 47.8933L87.8404 47.2H90.3476C90.9877 47.2 91.4323 46.9867 91.6812 46.56C91.9302 46.1333 92.0546 45.6178 92.0546 45.0133V32.16C92.0546 31.5911 91.9479 31.0933 91.7346 30.6667C91.5212 30.2044 91.1478 29.9733 90.6143 29.9733L90.5076 30.0267C90.3654 30.0978 90.1698 30.1511 89.9209 30.1867L89.2274 28.6933C91.1122 27.84 92.9793 27.04 94.8285 26.2933C96.7134 25.5467 98.4204 24.8711 99.9496 24.2667C101.728 23.6267 103.453 23.0044 105.124 22.4L106.031 22.9333C106.102 22.9689 106.244 23.0578 106.458 23.2C106.564 23.2711 106.689 23.36 106.831 23.4667C106.973 23.5733 107.044 23.6089 107.044 23.5733L106.991 23.52L106.884 23.4667C107.276 23.6444 107.631 23.8578 107.951 24.1067H107.898C108.929 24.7111 110.156 25.4578 111.579 26.3467C113.001 27.2 114.477 27.9822 116.006 28.6933L115.366 30.0267L114.619 29.92ZM105.177 30.56C105.213 31.1289 105.231 31.4311 105.231 31.4667V45.3333C105.231 45.44 105.213 45.6356 105.177 45.92C105.177 46.1689 105.16 46.4533 105.124 46.7733C105.124 47.0933 105.106 47.4133 105.071 47.7333C105.035 48.0533 105 48.32 104.964 48.5333C104.537 48.8178 104.093 49.1022 103.63 49.3867C103.204 49.6711 102.812 49.9022 102.457 50.08C101.852 49.76 101.283 49.3867 100.75 48.96C100.252 48.4978 99.9318 48.0889 99.7896 47.7333L99.8429 47.84C99.8074 47.6622 99.7896 47.4133 99.7896 47.0933V30.4C99.7896 29.5822 99.9852 28.8711 100.376 28.2667C100.768 27.6267 101.425 27.0933 102.35 26.6667C102.884 26.9511 103.381 27.3244 103.844 27.7867C104.342 28.2489 104.751 28.6756 105.071 29.0667C105.142 29.4578 105.177 29.9556 105.177 30.56Z" fill="#682B94"/>
<path fill-rule="evenodd" clip-rule="evenodd" d="M254.98 2.88333C247.763 17.8737 245.473 23.0235 244.968 25.3154C244.351 28.1547 244.611 28.9306 246.258 29.0254C246.764 29.0456 247.529 29.1344 247.942 29.1965C248.805 29.3281 248.853 29.5052 248.22 30.4855C247.764 31.2284 247.175 31.731 245.644 32.7095C243.861 33.8415 243.179 34.576 242.99 35.541C242.819 36.3805 242.939 38.6259 243.388 43.8895C243.562 45.7581 243.726 47.7158 243.779 48.2364L243.856 49.1648L242.132 49.9362C239.541 51.0772 233.255 54.1894 230.609 55.6385L228.28 56.9167L229.293 56.8358C232.033 56.6382 233.954 56.9186 242.837 58.789C250.403 60.3733 252.464 60.5989 256.22 60.2678C258.815 60.0403 262.492 59.092 264.915 58.0305C268.291 56.5414 270.7 54.9143 276.202 50.4242C280.445 46.9609 282.189 45.6839 284.181 44.5646C286.01 43.541 286.465 43.4367 284.866 44.4162C284.182 44.8233 283.12 45.5558 282.485 46.0187L281.337 46.8779L283.308 47.2828C287.672 48.1868 291.394 48.3656 294.144 47.8203C296.009 47.4427 297.01 46.9335 297.624 46.0102C298.046 45.3971 298.071 45.235 297.902 44.3485C297.658 43.1196 297.146 42.4973 295.735 41.7358C294.359 40.9818 293.615 40.7148 291.956 40.3817C287.308 39.4498 282.157 39.0838 277.66 39.3541C275.928 39.4546 275.896 39.4632 275.555 39.8648C274.253 41.4378 271.12 43.4485 267.203 45.2373C264.685 46.3933 264.137 46.4708 266.474 45.346C270.397 43.452 273.815 41.0892 274.834 39.5571L275.263 38.9075L272.647 36.0352C271.225 34.4655 270.03 33.1629 270.025 33.1468C269.985 33.1232 268.594 34.0469 267.944 34.5141L267.641 34.7332L268.569 36.711C270.088 39.9283 270.28 41.154 269.381 41.9808C268.991 42.3266 265.896 43.7748 265.733 43.6804C265.688 43.6407 266.219 43.3088 266.912 42.9339C268.725 41.9146 268.92 41.7417 269.049 41.0686C269.152 40.489 269.109 40.328 268.127 38.2783C267.56 37.0667 267.047 35.927 266.995 35.7338C266.853 35.2026 266.748 35.1962 265.895 35.6828C264.523 36.4808 261.921 37.6422 260.482 38.1301C259.691 38.3934 259.224 38.5182 259.437 38.4097C259.649 38.3012 260.502 37.8833 261.34 37.4697C263.688 36.3245 266.239 34.7799 266.118 34.5878C266.06 34.4998 265.804 34.3787 265.552 34.3423C265.187 34.2673 264.753 34.3834 263.325 34.9722L263.053 35.0839C262.211 35.4296 261.534 35.7079 261.486 35.705C261.241 35.7534 262.24 35.1068 263.565 34.3903C265.174 33.5117 265.899 33.3868 266.695 33.847L267.124 34.0947L268.211 33.3902C268.819 33.0207 269.321 32.6448 269.352 32.5675C269.379 32.4741 266.014 28.4214 265.736 28.2198C265.65 28.1565 264.642 29.2195 264.069 29.9765C263.749 30.3899 263.807 30.2192 264.245 29.4118C264.594 28.7838 265.246 27.9366 265.687 27.5253C266.542 26.7274 266.713 26.3367 266.527 25.6444C266.367 25.0488 265.429 24.5748 263.411 24.0615C261.544 23.5943 259.787 22.7009 259.419 22.0399C259.085 21.4389 258.918 19.5338 258.974 16.7237C259.023 12.8628 259.437 9.97422 260.318 7.40959L260.829 5.90989L260.32 5.94231C259.541 5.99523 258.874 6.20803 258.033 6.67422C257.077 7.22311 257.074 7.01703 258.036 6.36295C259.542 5.35658 262.227 4.75974 263.845 5.06926C264.753 5.24061 266.361 6.08789 266.599 6.52465C267.028 7.28978 266.853 10.8738 266.362 11.2293C266.059 11.4484 263.707 11.6801 263.352 11.5161C263.136 11.4185 263.06 11.1974 262.97 10.4794C262.832 9.25686 262.48 7.88418 262.293 7.83059C261.883 7.71591 260.88 12.2631 261.088 13.2945L261.229 13.947L262.65 14.1021C264.428 14.2999 266.441 14.3484 267.567 14.2374L268.438 14.1426L268.845 13.1539C269.628 11.2537 270.022 8.16331 269.747 5.8557C269.661 5.08506 269.636 5.05717 268.416 4.17538C265.743 2.24982 261.694 0.3989 259.388 0.0317061C258.853 -0.032471 258.017 0.00115414 257.344 0.129166L256.201 0.365786L254.98 2.88333ZM263.764 46.6223C263.917 46.6158 264.143 46.5556 264.247 46.4933C264.33 46.4192 264.209 46.4171 263.935 46.4902C263.678 46.559 263.59 46.617 263.764 46.6223Z" fill="#682B94"/>
<path d="M226.671 58.3128C224.378 60.4959 224.626 63.3455 227.17 63.8908C229.969 64.4886 235.904 62.5744 240.612 59.5563L241.1 59.2534L237.91 58.4841C232.918 57.299 229.808 56.9569 228.07 57.4213C227.668 57.5288 227.152 57.8564 226.671 58.3128Z" fill="#682B94"/>
<defs>
<linearGradient id="paint0_linear_16_180" x1="0" y1="32" x2="298" y2="32" gradientUnits="userSpaceOnUse">
<stop stop-color="white"/>
<stop offset="1" stop-color="#999999"/>
</linearGradient>
<linearGradient id="paint1_linear_16_180" x1="0" y1="32" x2="298" y2="32" gradientUnits="userSpaceOnUse">
<stop stop-color="white"/>
<stop offset="1" stop-color="#999999"/>
</linearGradient>
<linearGradient id="paint2_linear_16_180" x1="0" y1="32" x2="298" y2="32" gradientUnits="userSpaceOnUse">
<stop stop-color="white"/>
<stop offset="1" stop-color="#999999"/>
</linearGradient>
<linearGradient id="paint3_linear_16_180" x1="0" y1="32" x2="298" y2="32" gradientUnits="userSpaceOnUse">
<stop stop-color="white"/>
<stop offset="1" stop-color="#999999"/>
</linearGradient>
<linearGradient id="paint4_linear_16_180" x1="0" y1="32" x2="298" y2="32" gradientUnits="userSpaceOnUse">
<stop stop-color="white"/>
<stop offset="1" stop-color="#999999"/>
</linearGradient>
<linearGradient id="paint5_linear_16_180" x1="0" y1="32" x2="298" y2="32" gradientUnits="userSpaceOnUse">
<stop stop-color="white"/>
<stop offset="1" stop-color="#999999"/>
</linearGradient>
<linearGradient id="paint6_linear_16_180" x1="0" y1="32" x2="298" y2="32" gradientUnits="userSpaceOnUse">
<stop stop-color="white"/>
<stop offset="1" stop-color="#999999"/>
</linearGradient>
</defs>
</svg>
